<svg viewBox="0 0 107 160" xmlns="http://www.w3.org/2000/svg" xmlns:xlink="http://www.w3.org/1999/xlink"><defs><path id="a" d="M0 0h107v160H0z"></path></defs><g fill="none" fill-rule="evenodd"><mask id="b" fill="#fff"><use xlink:href="#a"></use></mask><path d="M78.122 80.118c-.245.184-.508.36-.765.525-6.68 4.266-14.082 2.577-18.997-3.74-.006-.02-.023-.035-.029-.055-3.711-4.936-7.408-8.2-14.91-8.789v10.939l1.622 3.426H30l1.513-3.426V56.093L30 52.662h15.043l-1.623 3.431v8.292c1.23-.707 15.584-14.272 18.18-17.285 6.47-7.519 7.2-14.71 2.614-19.306l-.101-.092a8.962 8.962 0 0 0-11.766-.087c-.049.044-.15.133-.26.061-.138-.092.026-.297.026-.297 2.354-3.674 6.4-6.177 11.084-6.367 6.429-.263 12.008 3.893 13.799 9.781h.006v.006c1.594 4.938.39 10.393-2.79 15.17-6.917 10.384-23.817 15.519-26.24 18.324 12.008-1.276 17.671 1.506 22.997 7.045 2.983 3.108 6.786 4.378 12.031 2.849a14.954 14.954 0 0 1-4.878 5.93M44.508 27A3.502 3.502 0 0 1 48 30.508 3.495 3.495 0 0 1 44.508 34C42.575 34 41 32.436 41 30.508A3.51 3.51 0 0 1 44.508 27M50 47.991A1.997 1.997 0 0 1 47.993 50 1.997 1.997 0 0 1 46 47.991 1.99 1.99 0 0 1 47.993 46c1.123 0 2.007.89 2.007 1.991m0-9.488C50 39.883 48.89 41 47.504 41A2.504 2.504 0 0 1 45 38.503 2.509 2.509 0 0 1 47.504 36 2.497 2.497 0 0 1 50 38.503m1-5.003c0-1.925 1.557-3.5 3.494-3.5A3.509 3.509 0 0 1 58 33.5c0 1.93-1.571 3.5-3.506 3.5A3.494 3.494 0 0 1 51 33.5m1.999 7.5c1.107 0 2.001.899 2.001 2.003A2.004 2.004 0 0 1 52.999 45a2 2 0 0 1 0-4M53.5 6C27.524 6 4 26.987 4 52.881 4 91.38 43.457 95.45 53.5 154 63.543 95.45 103 91.379 103 52.881 103 26.987 79.482 6 53.5 6" fill="#00205B" mask="url(#b)"></path></g></svg>