<svg xmlns="http://www.w3.org/2000/svg" width="318" height="135"><path fill="currentColor" d="M209.7 14.543c.484.267 1.22.162 1.38.107.505-.175.13-.265-.1-.78-.187-.42.305-.83-.204-.977-.705-.205-1.349-.133-1.611.292-.197.325-.16.985.534 1.358Zm-39.57 41.062c-3.177-3.276-6.556-4.923-13.721-4.169 1.445-1.658 11.53-4.694 15.658-10.837 1.9-2.824 2.618-6.048 1.666-8.972v-.002h-.003c-1.069-3.48-4.4-5.941-8.236-5.785a8.262 8.262 0 0 0-6.617 3.765s-.096.12-.013.175c.064.043.126-.01.153-.034a5.387 5.387 0 0 1 7.023.052l.06.052c2.74 2.72 2.3 6.973-1.558 11.42-1.551 1.783-10.118 9.805-10.852 10.22v-4.902l.968-2.03h-8.977l.901 2.03v13.545l-.901 2.027h8.977l-.968-2.027v-6.47c4.478.35 6.685 2.28 8.9 5.198.004.013.013.022.016.034 2.934 3.735 7.35 4.734 11.338 2.21.154-.095.312-.2.456-.309a8.855 8.855 0 0 0 2.914-3.507c-3.132.904-5.4.154-7.183-1.684Zm-32.455 15.228 5.797-6.48 1.376-3.52-8.324 9.263c.367.406.908.674 1.15.737Zm76.23-19.224c-.102.093.731 2.06-.65 3.478-.653.672-1.741.892-1.997 1.898-.13.775-.792.951-.87 1.068-.644.977-1.815.785-2.426.416-.087-.052-.117.133-.087.298a.922.922 0 0 0 .554.672s.779.279 1.114.448c.838.423 1.153 1.002 1.265 1.592l.002-.002s.672 2.188 2.667 3.494c1.49.972 2.228 1.912 2.595 2.314.126.137.368.19.368.19s-.226.967-1.007.412c-1.123-.794-.116 2.68-1.858 4.651-.852.96-1.443.782-1.443.782s.998-1.477.998-3.26c0-1.785-.65-2.933-1.735-3.89-1.085-.957-2.682-2.004-3.027-2.096a3.238 3.238 0 0 1-.345-.091.433.433 0 0 1-.301-.284c-.078-.237.004-.51.05-.571a.966.966 0 0 1 .19-.179c.196-.162.53-.432.495-.978l-.032-.545s-2.945 1.782-3.013-1.237c-.007-.22-.208-.45-.52-.45l-.5-.019s.275.865-.57.885c-.266.007-.504-.153-.791-.135-.229.014-.598.062-.687.375-.274-.212.013-.512-.38-.98a2.379 2.379 0 0 1-.266-.319c-.151-.256-.2-.528-.133-.768a.893.893 0 0 1 .178-.33c.018.072.18.154.258.154.192 0 .525-.151.977-.762.31-.42.543-.887 1.05-.715.578.267.518-.21.518-.21.05-.083-.004-3.319.263-4.579.203-.95 1.187-2.538 2.264-2.984l.023-.007.02-.014c.976-.53 1.28-1.59 1.236-2.403-.032-1.734-4.24-4.128-6.376-4.61-.26-.06-.785-.186-.746-.495.426.064.849.076 1.264.087.265.007.541.014.808.037.046.002.08.002.114.002.478 0 .548-.377.555-.42.062-.396-.123-.623-2.221-1.28-.436-.134-1.835-.864-2.26-1.124-2.034-1.249-2.872-3.776-2.947-3.936.931.583 1.86.693 2.436.693.929 0 1.837-.288 2.207-.702.144-.158.256-.213.445-.213l.087.002c.539 0 .989-.546 1.048-1.271l.075-.951s-.386.35-.796.523c-.206.09-.984.394-2.133.394a6.994 6.994 0 0 1-2.495-.453l-.07-.028c-.322-.12-.535-.2-1.199-.704-.105-.08-.22-.16-.336-.238-.447-.306-.648-.512-.687-.773-.228-1.541-1.493.499-1.803.812-.99 1-1.888.61-2.045 1.244-.258 1.04-.8.476-1.096-.15-.176-.378-.201-.822-.201-.822-2.009-2.053-.342-7.57-.194-8.724.19-1.45-.203-2.831-.744-4.052-.126-.28-.366-.476-.557-.613-1.507-.796-.005-1.128-.626-1.898-.691-.865-.048-1.199-1.036-1.286a4.925 4.925 0 0 1-.221-.503c-.071-.187-.6-1.226-1.112-.88-1.365.915-1.27.018-1.201-.238.055-.197-.527-1.262-1.826-.789-.19-.99-.998-.732-.987-.764.12-.295.18-1.072 1.5-1.44.678-.815 2.055-.572 3.484-.076.251.087.45.373.696.464.331.124.829-.06 1.132.071.092.039.16.105.204.197.153.094.28.233.397.432.344.583.48 1.12.424 1.69-.061.606-.057.567.306 1.002.02.02.05.096.069.146.03.07.06.142.093.21.062.124.099.3.133.485.075.382.55.782.53 1.208-.033.651-.055 1.326-.151 1.962-.137.894.203 1.637.5 2.291.102.222.214.46.33.71.517 1.092 1.158 2.458 1.293 3.473.039.295.034.42.027.594-.002.147-.009.314.01.59.033.462.353.666.657.666a.957.957 0 0 0 .44-.121c.443-.229.847-.73 1.203-.73.416 0 .71.275.968.41.468.237 4.013 2.433 6.764.359.247.97 1.434.491 1.623.42.064.458.235.851.514 1.174.543.635 1.45.956 2.689.956.023 0 .046-.003.07-.003a2.863 2.863 0 0 0 1.628.172c.354.592.774 1.635.553 2.03-.142.261-.306.643-.283.988.002.055.013.11.027.16-.014-.01-.027-.022-.041-.034-.959-.681-2.134-.132-2.23.105.593.245.694.524.965.764.382.339 1.315 1.507 1.738 2.85.189.606.577 2.568.814 3.549.108.43.567 1.688.576 1.94.03.67.064 1.43.548 1.776 1.109.794 1.716 2.152 2.161 3.373.414 1.128.553 2.152.427 3.126-.054.419-.164.686-.358.865Zm-3.381 21.485c-.237.276-.547.296-.857.148a5.831 5.831 0 0 1-.986-.593c-.45-.343-.866-.323-1.34-.004-.466.314-.598.397-.89.263.192-.178.248-.413.48-.624.247-.234.466-.472.198-.7-.352-.295-.408-.65-.369-1.046.071-.6.112-1.201.208-1.796.122-.747.38-1.452.978-2.065.352-.078 1.94.27 2.702 1.464 1.484 2.313.569 4.147-.124 4.953Zm-7.45-21.185c.536-.61 1.55-1.473 2.544-1.909-1.112.976-2.426 2.456-2.544 4.321-.02.287.013.572.022.856.023.512-.068 1.025-.56 1.36-.478.326-1.08.026-1.08-.756-.031-1.3.722-2.841 1.618-3.872Zm-9.264-13.67c-.108.255-.218.512-.305.779-.19.573-.888 1.928-1.143 2.469-.5 1.064-1.014 1.596-2.118 1.846.17-.271.3-1.025.067-1.436-.078-.139-.31-.093-.39-.21-.193-.277.085-.662-.232-.957-.321-.3-.636-.397-1.056-.376-.32.019-.702.026-.959-.127-.48-.29-1.625-.562-2.035.113l.684-20.34c.09.095.174.195.284.278.884.69 1.143 1.267 1.138 2.727.003 1.9-.686 4.927-.9 5.825-.373 1.564-.128 3.04.721 4.33.53.798.85 1.67 1.249 2.517.268.564.787.882 1.381.798.815-.114 1.455-.594 2.143-.972.347-.193.65-.497 1.088-.43.016.073.037.114.032.147-.124.61-.103 1.167.31 1.712.278.364.227.86.041 1.306Zm-9.852 30.06c0 .03-.032.384-.032.384-.17 1.98-1.79 3.346-3.818 3.543l-17.73 1.878-2.963 1.73-2.96-1.73-17.728-1.878c-2.033-.197-3.65-1.564-3.82-3.543 0 0-.033-.355-.033-.384l-1.68-50.359 1.394-1.273h5.779v.623c0 1.25 1.257 2.853 2.804 2.853h32.49c1.547 0 2.805-1.603 2.805-2.853v-.623h5.774l1.399 1.273-1.68 50.359ZM131.4 15.476a5.542 5.542 0 0 1-.223.503c-.986.087-.345.421-1.037 1.286-.618.77.884 1.102-.623 1.898-.194.137-.434.334-.557.613-.541 1.22-.934 2.602-.747 4.052.151 1.155 1.815 6.67-.191 8.724 0 0-.025.444-.203.821-.293.627-.836 1.192-1.094.151-.16-.633-1.055-.245-2.045-1.244-.311-.313-1.578-2.353-1.806-.812-.037.261-.24.467-.687.773a9.68 9.68 0 0 0-.336.238c-.664.503-.874.583-1.196.704l-.069.028c-.792.3-1.632.453-2.497.453-1.149 0-1.927-.304-2.135-.394-.409-.173-.794-.523-.794-.523l.075.951c.057.725.507 1.271 1.046 1.271l.089-.002c.19 0 .301.055.443.213.372.414 1.28.702 2.207.702.575 0 1.51-.11 2.436-.693-.073.16-.913 2.687-2.947 3.936-.423.26-1.822.99-2.258 1.125-2.1.656-2.283.883-2.224 1.278.01.044.08.421.555.421.037 0 .07 0 .117-.002.269-.023.543-.03.808-.037.415-.011.84-.023 1.264-.087.04.309-.488.435-.746.494-2.14.483-6.347 2.877-6.376 4.61-.044.815.258 1.873 1.232 2.404l.021.014.025.007c1.075.446 2.062 2.035 2.265 2.984.267 1.26.212 4.496.262 4.578 0 0-.059.478.519.21.504-.17.74.296 1.052.716.45.611.783.762.975.762.077 0 .24-.082.258-.153.084.1.146.21.178.33.064.24.018.511-.13.767a2.6 2.6 0 0 1-.27.318c-.392.47-.105.769-.379.981-.086-.313-.459-.36-.69-.375-.284-.018-.524.142-.789.135-.845-.02-.568-.885-.568-.885l-.5.019c-.313 0-.516.23-.52.45-.07 3.019-3.014 1.237-3.014 1.237l-.035.545c-.034.546.3.816.5.978.078.064.146.12.188.179a.798.798 0 0 1 .05.571.437.437 0 0 1-.304.284 2.97 2.97 0 0 1-.345.091c-.342.092-1.94 1.14-3.024 2.095-1.085.958-1.738 2.106-1.738 3.89 0 1.784 1 3.261 1 3.261s-.591.179-1.443-.782c-1.744-1.971-.737-5.445-1.86-4.651-.779.555-1.005-.412-1.005-.412s.24-.053.365-.19c.37-.402 1.108-1.342 2.598-2.314 1.996-1.306 2.667-3.494 2.667-3.494l.002.002c.11-.59.427-1.169 1.265-1.592.336-.169 1.112-.448 1.112-.448.303-.135.5-.375.557-.672.03-.165 0-.35-.085-.298-.614.369-1.785.56-2.431-.416-.075-.117-.737-.293-.868-1.068-.255-1.006-1.344-1.226-2-1.898-1.378-1.418-.547-3.385-.648-3.478-.194-.179-.306-.446-.36-.865-.124-.974.016-1.998.426-3.126.448-1.221 1.055-2.58 2.165-3.373.484-.345.518-1.107.545-1.777.012-.251.47-1.51.576-1.94.237-.98.627-2.942.817-3.548.425-1.343 1.356-2.511 1.737-2.85.27-.24.37-.519.964-.764-.096-.237-1.272-.786-2.229-.105l-.04.034a.617.617 0 0 0 .025-.16c.025-.345-.14-.727-.284-.988-.219-.395.201-1.438.555-2.03.45.094 1.078.064 1.628-.172.023 0 .046.003.07.003 1.243 0 2.147-.32 2.69-.956.276-.323.45-.716.516-1.174.185.071 1.374.55 1.62-.42 2.752 2.074 6.295-.122 6.763-.36.26-.134.552-.409.968-.409.358 0 .765.501 1.203.73.157.08.301.121.443.121.303 0 .62-.204.657-.665.019-.277.012-.444.007-.59-.007-.174-.009-.3.03-.595.132-1.015.776-2.38 1.292-3.474.119-.25.228-.487.329-.709.299-.654.639-1.397.502-2.291-.096-.636-.119-1.31-.15-1.962-.024-.426.454-.826.527-1.208.038-.185.07-.361.134-.485.035-.068.064-.14.092-.21.02-.05.052-.126.068-.146.365-.435.368-.396.308-1.002-.054-.57.08-1.107.425-1.69a1.22 1.22 0 0 1 .395-.432.4.4 0 0 1 .205-.197c.302-.13.8.053 1.13-.07.25-.092.448-.378.697-.465 1.429-.496 2.808-.739 3.483.075 1.325.369 1.382 1.146 1.5 1.441.014.032-.796-.226-.984.764-1.299-.473-1.878.592-1.828.789.068.256.166 1.153-1.196.238-.516-.346-1.044.693-1.115.88Zm-1.074 24.75c-.257.154-.638.147-.961.128-.418-.02-.732.077-1.053.376-.32.295-.042.68-.23.956-.083.118-.314.072-.395.211-.234.41-.1 1.165.07 1.436-1.104-.25-1.62-.782-2.12-1.846-.253-.541-.953-1.896-1.141-2.47-.087-.266-.197-.523-.305-.779-.186-.445-.239-.942.041-1.306.41-.545.434-1.102.31-1.712-.007-.033.016-.074.032-.146.44-.068.739.236 1.087.429.689.378 1.327.858 2.143.972.597.084 1.113-.234 1.382-.798.399-.847.718-1.72 1.246-2.517.849-1.29 1.096-2.766.722-4.33-.213-.898-.9-3.925-.9-5.825-.004-1.46.256-2.038 1.139-2.727.11-.083.193-.183.285-.278l.683 20.34c-.415-.675-1.555-.403-2.035-.113ZM114.923 51.91c.899 1.03 1.65 2.572 1.62 3.872 0 .782-.6 1.082-1.082.756-.489-.335-.58-.848-.56-1.36.012-.284.044-.569.025-.856-.116-1.865-1.432-3.345-2.544-4.321.995.436 2.009 1.298 2.541 1.909Zm-4.266 20.736c-.471-.319-.889-.339-1.338.004-.3.23-.64.425-.986.593-.307.148-.62.128-.856-.148-.693-.806-1.608-2.64-.127-4.953.764-1.194 2.352-1.542 2.704-1.464.598.613.856 1.318.978 2.065.096.595.135 1.196.205 1.796.044.397-.014.751-.366 1.045-.268.23-.046.467.2.7.227.212.288.447.479.625-.293.134-.425.051-.893-.263Zm-3.91-47.537c-.39-.002-.913.242-1.46 1.243-.405.729-.78-.014-.616-.149.251-.21-.637-.051-.845.175-.171.177-.11.128-.375-.007-.262-.13-.504-.282-.473-.659.1-.025.182-.051.272-.07 1.21-.244 1.999-1.066 1.74-2.243a5.903 5.903 0 0 1-.033-1.317c.102-1.034.472-1.49.216-2.34-.052-.167.043-.392-.064-.18-.26.532-1.274 1.428-2.981 1.233-.346.367-1.241.349-1.483.088.014.533-.82.798-1.092.421-.253-.344.015-1.34.034-1.461.047-.284-.01-.526-.457-.621.38.672-.173 1.021-.36 1.484-.256-.06-.661-.623-.505-1.06.045-.12.178-.245.154-.336-.201-.782.18-1.094.812-1.645.218-.193 1.466-.533 1.102-.717-.344-.17-1.381-.128-.727-.859.284-.375.528-.712.864-1.042.258-.247.578-.433.836-.685.36-.358.563-.984 1.004-1.245.365-.216.507-.342.542-.449a.205.205 0 0 0-.002-.13c-.024-.24.092-.41.405-.864.509-.74 1.302-.288 2.053-.707.08-.044.142-.088.204-.133 0 0-.007.221.01.28.113.405.058.69-.202.982-.33.37.05.875.379 1.133.338.186.345-.842.682-1.09.158-.115.348-.216.554-.3.919-.376 1.897-.027 2.264.192.734.44.978 1.808.237 2.236-1.604.612-1.357 2.47-.61 3.046.38.345.818 1.12.896 1.988.002.03.01.056.01.088l.007.17v.002c.03 1.022-.192 1.625-1.956 3.163-.836.73-.465 1.869-1.035 2.385Zm-4.72-.943c.092-.14 1.151.44 1.506-.09.224-.337-.108 1.145-.717 1.063-.195-.028-.902-.81-.79-.973Zm-.61-1.375c-.345-.263-.65-.798-.552-1.115.057-.193.387-.238.577-.298-.133.338-.205.945-.025 1.413Zm7.646 4.465c.585 1.823-1.019 2.745-1.019 2.745.932-.845-.072-2.74-.42-3.574-.516-1.234.718-3.228 2.144-3.926-.65.856-1.459 2.41-.705 4.755Zm5.7-14.204c1.988.113 2.167-1.383 1.631-2.218 1.46.392 1.47 3.791-1.183 3.59-3.078-.237-5.058.79-3.64 3.91-2.676-1.101-2.55-5.607 3.193-5.282Zm-1.548 14.676c-.308.56-1.8 1.2-2.726-.44-1.488-2.641.24-6.454.24-6.454-.73 3.748.52 5.677 2.486 6.894Zm.067-3.805c-.04 1.66.765 2.745.765 2.745-2.873-1.898-2.48-5.834-2.48-5.834s1.756 1.455 1.715 3.09Zm1.606-.408c.263.277 3.277 4.037 7.484-.18 0 0-1.243 4.13-5.023 3.195-2.747-.677-2.461-3.015-2.461-3.015Zm88.224 0s.286 2.338-2.461 3.015c-3.777.935-5.023-3.196-5.023-3.196 4.207 4.218 7.221.458 7.484.181Zm1.604.408c-.039-1.634 1.716-3.089 1.716-3.089s.392 3.936-2.48 5.834c0 0 .806-1.084.764-2.745Zm2.553-3.089s1.73 3.813.242 6.453c-.925 1.64-2.418 1-2.726.44 1.967-1.216 3.215-3.145 2.484-6.893Zm-4.48-6.41c-2.654.201-2.643-3.198-1.183-3.59-.536.835-.356 2.331 1.631 2.218 5.74-.325 5.869 4.18 3.193 5.282 1.415-3.12-.563-4.147-3.64-3.91Zm7.586 12.003c-.35.833-1.353 2.73-.422 3.574 0 0-1.603-.922-1.016-2.745.754-2.345-.058-3.9-.705-4.755 1.429.698 2.66 2.692 2.143 3.926Zm-1.572-14.396c.367-.22 1.345-.568 2.261-.191.206.083.4.184.557.3.334.247.343 1.275.68 1.089.33-.258.71-.763.378-1.133-.26-.291-.312-.577-.199-.982.017-.059.007-.28.007-.28.062.045.128.089.206.133.749.419 1.544-.033 2.054.707.31.454.428.624.407.864a.19.19 0 0 0-.007.13h.002c.036.107.178.233.542.45.439.26.642.886 1.005 1.244.258.252.577.438.833.685.341.33.585.667.867 1.042.653.73-.384.689-.725.859-.367.184.881.524 1.101.717.63.551 1.01.863.81 1.645-.023.09.11.216.152.335.158.438-.246 1-.502 1.061-.187-.463-.741-.812-.358-1.484-.45.095-.507.337-.46.62.02.122.287 1.118.034 1.462-.272.377-1.108.112-1.092-.42-.244.26-1.139.278-1.485-.09-1.707.196-2.716-.7-2.981-1.233-.104-.211-.012.014-.062.182-.255.85.114 1.305.214 2.339.035.356.037.782-.031 1.317-.256 1.177.533 1.999 1.74 2.243.09.019.173.045.273.07.028.377-.211.528-.474.659-.268.135-.206.184-.374.007-.208-.226-1.097-.384-.848-.175.164.135-.21.878-.61.15-.55-1.002-1.076-1.246-1.467-1.244-.568-.516-.196-1.654-1.035-2.385-1.761-1.538-1.986-2.141-1.953-3.163v-.002c.002-.056.005-.114.005-.17.002-.032.009-.058.011-.088.079-.868.517-1.643.893-1.988.748-.577.997-2.434-.608-3.046-.742-.428-.495-1.797.239-2.236Zm7.778 10.76c.183-.468.11-1.075-.022-1.413.192.06.517.105.577.298.095.317-.208.852-.555 1.115Zm-.61 1.375c.116.163-.591.945-.786.973-.61.082-.941-1.4-.717-1.063.358.53 1.411-.05 1.504.09Zm4.312 21.98c-.635-1.307-1.351-2.573-1.74-3.98-.382-1.366-.746-2.73-.613-4.174.147-1.565.621-3.002 1.752-4.13 3.26-3.672 6.493-1.314 7.374.445.424.848.298 1.248-.654 1.305-.835.048-2.011.452-2.578 1.062-.782.852-1.062 1.844-1.312 2.981-.076.352-.314.978-.803.59-.06.141-.158 1.025 1.016 1.003-.18.92.94 2.074.021 2.334-.261.076-.539-.18-.649-.413-.349 2.929 2.872 3.018 3.399.964.195-.759.624-1.099 1.436-1.037.435.03.605-.254.605-.724-.768.034-.837-.69-.053-.841.773-.123 1.37-.8 1.725-1.37.447-.718.7-2.35.454-4.063-.243-1.7-1.367-3.477-1.628-3.82-1.181-1.544-2.768-2.417-4.81-2.412-1.213 0-2.449.423-3.5 1.138-1.203.82-2.21 1.738-2.917 3.002-.894 1.601-1.383 3.132-1.458 4.927-.053 1.33.33 3.034.81 4.298.561 1.475 1.226 2.912 1.832 4.377.984 2.371 1.715 4.797 1.637 7.406-.11 1.711-1.67 2.856-2.963 2.959-.548.04-1.105-.1-1.383-.51a.908.908 0 0 1-.135-.502c.009-.156.108-.316.188-.46.998-1.7 1.098-3.433.225-5.217-.076-.156.332-.665.247-2.296-.144-2.847-1.761-5.849-3.022-7.167-.62-.647-1.046-1.84-1.264-2.664-.337-1.252-.31-2.524-.594-3.792-.13-.585-.26-1.156.151-1.716.11-.15.264-.505.28-.724.055-.69-.083-1.823-.388-2.095.67.315 1.25.062 1.4-.662-.182.125-1.202-.236-.452-1.044.545-.492.887-1.182.983-1.986.163.925 1.026.816 1.438.704.425-.117.75-.443.748-.615-.33.05-.628-.427-.13-.6.286-.101.658-.375.786-.54a.698.698 0 0 0 .092-.537c-.17-.546-.12-.806.298-1.206.165-.157.174-.258.289-.452.195-.338-.078-.64-.466-.674-.096-.007-.92.411-1.103.26-.172-.144-.225-1.016.152-1.555.346-.5 1.107-.683 1.362-.578.374.386.218 1.092.26 1.647.809-.124 1.254-.617 1.37-1.133.668.137.985-.359 1.411-.777.172.011.326-.094.532-.233.395-.265.853-.85.739-1.314-.062-.24-.156-.342-.131-.575.094-.88-.062-1.134-.67-1.604-.179-.135-.192-.37-.064-.617.243-.46-.321-.9-.621-1.286-.631-.804-1.528-1.378-1.97-2.015.259-.247.502-1.197-.576-1.485-.93-.247-.076-2.876-2.587-2.14-.337.098-1.012.283-1.14-.129-.103-.335.34-.466.426-.459-.502-.658-1.098-.014-1.146.025-.055-.813-.425-1.133-1.436-.847-.16.045-.367-.135-.502-.26-.32-.295-.716-.592-1.145-.636-.697-.07-1.284.484-1.858.855-.972.626-1.701.669-1.995-.044-.046.731.429 1.487 1.603 1.03 3.796-1.487 4.954 1.138 4.665 1.575-.055-.135-.573-.355-1.153-.318-.81.05-1.067.196-1.262.313.048-.683-.977-1.183-2.619-.617-.77.265-1.62-.078-1.832-.482-.484-.91.272-1.517.598-1.5-.69-.323-1.45.116-1.731.78V9.09c-.79.28-1.239.766-1.606 1.307-.195-.002-1.025.012-1.596.245-.732.301-2.647 1.245-1.888 3.77-.222.71-1.58 1.358-2.525-.131-.53.427-.534 1.56.397 2.59.789.841 2.397 1.586 5.364-.482.989-.687 3.386-1.66 4.475 1.451-.349-.244-1.615-1.138-2.725-.452-5.885 3.648-8.307.541-8.476-1.732-1.124 1.24-.28 2.972.282 3.863 1.42 2.038 4.55 3.39 6.832.919 2.151-2.33 2.906-2.506 4.17-1.86 0 0-1.06.153-2.021 1.455-.867 1.273-2.816 3.242-5.264 3.119-1.782-.092-4.591-1.64-4.862-4.905-.396.358-1.548 1.494-.697 2.887.677 1.113-.371 1.543-.323 2.116-.372-.587-.814-1.263-1.227-1.974-.954-1.647-.177-4.08-.381-5.005-.172-.683-.553-.455-.748-1.133-.098-.339-.11-.122-.16-.467-.131-.934-.16-1.647-.688-2.661-.349-.679-.91-.946-1.587-.99-.168-.01-.342.046-.503.017-.172-.03-.422-.08-.479-.197-.2-.43-.566-.498-.959-.57a5.022 5.022 0 0 1-.752-.209c-.823-.292-1.621-.516-2.472-.027-.303.176-.626.279-.844.594-.117.169-.601.155-.803.212-.665.2-1.034.635-1.353 1.232-.459.861-.42 2.058.397 2.49-.042-.473.04-.729.293-.756.23-.025.4.162.379.285-.097.59-.05.99.098 1.28h-2.922s-.424-.019-.59.116l-1.258 1.014a.604.604 0 0 0-.227.473v.174c0 .242-.498.596-1.188.596h-32.192c-.69 0-1.188-.354-1.188-.596v-.174a.608.608 0 0 0-.231-.473l-1.257-1.014c-.165-.135-.59-.116-.59-.116h-2.922c.15-.29.195-.69.1-1.28-.022-.123.146-.31.375-.285.252.027.335.283.294.756.819-.432.858-1.629.397-2.49-.32-.597-.688-1.033-1.351-1.232-.202-.057-.686-.043-.803-.212-.218-.315-.541-.418-.846-.594-.849-.489-1.65-.265-2.47.027a5.07 5.07 0 0 1-.75.208c-.395.073-.762.142-.961.571-.058.117-.308.167-.48.197-.16.03-.335-.028-.504-.016-.677.043-1.234.31-1.587.989-.526 1.014-.558 1.727-.688 2.661-.05.345-.06.128-.159.467-.197.678-.578.45-.75 1.133-.201.925.578 3.358-.38 5.005-.413.71-.851 1.387-1.225 1.974.046-.573-1-1.003-.321-2.116.848-1.393-.303-2.529-.7-2.887-.27 3.264-3.08 4.813-4.862 4.905-2.447.123-4.396-1.846-5.266-3.119-.958-1.302-2.02-1.455-2.02-1.455 1.266-.646 2.02-.47 4.172 1.86 2.282 2.472 5.412 1.12 6.832-.919.562-.89 1.404-2.622.28-3.863-.17 2.273-2.59 5.38-8.475 1.732-1.11-.686-2.376.208-2.724.452 1.089-3.111 3.486-2.138 4.472-1.45 2.97 2.067 4.575 1.322 5.364.482.934-1.03.93-2.164.4-2.591-.948 1.49-2.303.84-2.526.13.757-2.524-1.156-3.468-1.887-3.77-.571-.232-1.402-.246-1.597-.244-.366-.541-.818-1.028-1.605-1.307v.01c-.284-.665-1.041-1.104-1.732-.782.326-.016 1.083.592.6 1.501-.214.404-1.063.747-1.833.482-1.645-.566-2.67-.066-2.617.617-.198-.117-.454-.263-1.264-.313-.583-.037-1.099.183-1.154.318-.289-.437.87-3.062 4.665-1.574 1.175.456 1.65-.3 1.603-1.03-.293.712-1.025.669-1.995.043-.573-.37-1.16-.926-1.855-.855-.431.044-.828.34-1.15.635-.132.126-.341.306-.502.26-1.011-.285-1.378.035-1.433.848-.048-.039-.644-.683-1.147-.025.087-.007.53.124.425.46-.127.41-.8.226-1.14.127-2.51-.735-1.659 1.894-2.585 2.14-1.078.289-.835 1.24-.576 1.486-.442.637-1.34 1.21-1.968 2.015-.302.386-.867.827-.623 1.286.126.247.112.482-.067.617-.608.47-.761.724-.667 1.604.023.233-.071.335-.133.575-.113.464.346 1.049.738 1.314.209.14.36.244.535.233.426.418.745.914 1.41.777.117.516.562 1.01 1.372 1.133.04-.555-.117-1.261.256-1.647.257-.105 1.019.077 1.365.578.376.539.323 1.411.151 1.555-.183.151-1.009-.267-1.103-.26-.387.034-.66.336-.465.674.114.194.124.295.289.452.417.4.465.66.296 1.206a.7.7 0 0 0 .094.537c.13.165.497.439.784.54.502.173.2.65-.129.6-.004.172.324.498.748.615.413.112 1.275.221 1.438-.704.096.804.436 1.494.984 1.986.748.808-.273 1.17-.454 1.044.151.724.734.977 1.399.662-.303.272-.44 1.405-.385 2.095.016.22.17.573.277.724.413.56.285 1.131.154 1.716-.285 1.268-.257 2.54-.594 3.792-.22.825-.645 2.017-1.266 2.664-1.26 1.318-2.878 4.32-3.023 7.167-.083 1.63.326 2.14.25 2.296-.876 1.784-.775 3.518.222 5.217.083.144.18.304.189.46a.888.888 0 0 1-.133.502c-.278.41-.835.55-1.383.51-1.294-.103-2.854-1.248-2.964-2.959-.078-2.609.652-5.035 1.636-7.406.607-1.465 1.273-2.902 1.834-4.377.48-1.264.863-2.968.81-4.298-.076-1.795-.564-3.326-1.46-4.927-.705-1.264-1.712-2.182-2.916-3.002-1.05-.715-2.287-1.138-3.5-1.138-2.041-.005-3.63.868-4.812 2.412-.261.343-1.383 2.12-1.626 3.82-.245 1.714.01 3.345.454 4.062.356.571.952 1.248 1.725 1.37.782.152.716.876-.055.842 0 .47.172.753.606.724.816-.062 1.243.278 1.438 1.037.527 2.054 3.747 1.965 3.396-.964-.11.233-.385.489-.646.413-.922-.26.201-1.414.018-2.334 1.176.022 1.078-.862 1.018-1.003-.49.388-.727-.238-.803-.59-.252-1.137-.53-2.129-1.31-2.981-.568-.61-1.744-1.014-2.58-1.062-.953-.057-1.077-.457-.653-1.305.88-1.759 4.115-4.117 7.374-.445 1.128 1.128 1.605 2.565 1.75 4.13.137 1.444-.23 2.808-.61 4.174-.39 1.407-1.108 2.673-1.741 3.98-.895 1.839-1.984 3.589-2.587 5.565-.523 1.713-.753 3.463-.535 5.236.085.706.347 1.416.656 2.058.223.462.663.823 1.044 1.27-.035.083.062.572.17.629-.512.943-.393 2.15.566 2.23-.053-.2.608-1.045 1.039-.565.452.505.952.41 1.482.357.6-.06 1.013-.437 1.247-.932.48-1.008 2.739-1.163 3.108-.384.183.326.14.749.076 1.167-.012.092-.3 1.714-2.21 2.593-.348.16-.641.439-1.022.715-.906-.258-1.408.06-1.702 1.017-.663.068-.702.39-.7.57.154-.05.191.12.299.238-.01 0-.117.546.2.626.233-.326.552.357.873.827.241.352.61.43.61.43.058.073-.151.041-.142.34.002.21.069.384.197.425a.613.613 0 0 1 .753-.221c.234.091.295.397.273.587-.177 1.414.848 1.853 1.481 2.415.39.358.739.678 1.04 1.217.196.352.377.724.212 1.16-.036.11 1.42.474 2.106.544.156.016.348.021.45.11.394.366.832.354 1.309.267.218-.04.539-.278.998.05.188-.146.555-.644.412-.87.287-.11.636.231.62.811.435-.221.74-.511.775-1.048.24.447.793.08.986.792.08-.093.493-.644.415-1.005.36.464 1.023.142 1.17.734.614-.672.977-1.042.66-2.175.402-.124.498-.053.79.18.635.51 1.304.813 2.112.69.201-.034.488.048.704-.062.144-.07.814-.5 1.036.156.5-.032.812-.464.771-.916-.007-.078.124-.062.204.03.145.164.255.358.209.774.5-.25.761-.692.635-1.248.117.163.243.332.362.894.358-.3.8-.921.363-1.412-.275-.309-.594-.542-.746-.944-.192-.505-.759-.598-1.256-.564-.482.037-.725.121-.966-.386-.048-.11-.252-.272-.355-.222-.817.398-1.936-.589-2.677.361-1.259-1.334-1.348-2.903-1.046-4.55.092-.505.365-.919.757-1.378.018.722.484.61.7.966.16.268.034.71-.06.836.61.13 2.53-1.025 1.044-3.017.42.155 1.034-.434.958-.875.961.477.92 1.441.317 1.932.763.135 2.034-.507 1.54-2.472.505.4 2.356.697 2.937-.744-.244.276-1.381.342-1.418-.318-.018-.359.04-.532-.142-.676 1.48.503 1.294-.47 2.041-.656-.23-.112-.892-.288-.94-1.398-.025-.18.034-.413.08-.59.186-.771-.154-1.34-.683-1.832-.856-.785-.743-.23-.821-1.624-.037-.596-.273-1.142-.624-1.652-.383-.557-1.01-.938-1.592-1.258-.832-.46-3.72-1.79-4.259-2.623-.644-.996-.445-1.825.163-2.598.782-.993 2.08-1.893 2.844-2.908.408-.546.92-.982 1.53-1.281.582-.277.119-.306.695-.08.759.294 1.642.336 2.25.925.463.443 1.915 1.97 2.29 2.49.354.498.82.715 1.381.55.122-.036.237-.104.351-.157-.025-.046.344.222.516.434.285.345.599.478 1.032.29.2-.084.716-.185.741-.16.548.65 1.223.558 1.87.242.616-.297 1.008-.85 1.132-1.514.085-.48.34-.772.709-1.008.282-.176.482-.342.635-.511l.787 23.057-.768.77c.048 3.187 2.557 5.543 5.678 5.808l17.545 1.93 3.218 1.894h.76l3.217-1.894 17.548-1.93c3.119-.265 5.628-2.62 5.674-5.808l-.766-.77.786-23.057c.152.169.354.335.636.511.369.236.623.528.706 1.008.124.665.518 1.217 1.135 1.514.65.316 1.324.407 1.872-.242.023-.025.536.076.738.16.434.188.748.055 1.03-.29.172-.212.544-.48.518-.434.115.053.23.121.349.158.564.164 1.027-.053 1.383-.55.376-.522 1.83-2.048 2.291-2.491.608-.59 1.49-.63 2.25-.925.576-.226.115-.197.695.08.61.299 1.122.735 1.53 1.281.761 1.015 2.062 1.915 2.844 2.908.605.773.805 1.602.163 2.598-.54.834-3.427 2.163-4.26 2.623-.584.32-1.208.701-1.591 1.258-.353.51-.59 1.056-.622 1.652-.08 1.394.03.839-.823 1.624-.532.492-.872 1.06-.684 1.833.044.176.106.409.08.59-.047 1.11-.713 1.285-.937 1.397.743.185.56 1.159 2.039.656-.182.144-.124.317-.145.676-.034.66-1.172.594-1.415.318.58 1.441 2.431 1.144 2.936.744-.496 1.965.777 2.607 1.54 2.472-.605-.49-.646-1.455.317-1.932-.075.44.537 1.03.96.875-1.487 1.992.433 3.148 1.043 3.017-.094-.125-.22-.568-.06-.836.213-.356.681-.244.7-.966.392.46.665.873.756 1.378.3 1.647.214 3.216-1.048 4.55-.738-.95-1.86.037-2.674-.36-.103-.05-.307.111-.358.221-.238.507-.481.423-.963.386-.498-.034-1.064.06-1.257.564-.151.402-.47.635-.747.944-.436.491.004 1.112.364 1.412.12-.562.246-.731.363-.894-.127.556.135.999.635 1.248-.048-.416.064-.61.209-.775.08-.091.21-.107.204-.03-.042.453.268.885.77.917.22-.656.895-.226 1.037-.156.216.11.502.028.704.062.807.123 1.475-.18 2.11-.69.294-.233.388-.304.789-.18-.314 1.133.046 1.503.663 2.175.144-.592.812-.27 1.17-.734-.08.361.332.912.412 1.005.193-.712.748-.345.989-.792.032.537.34.827.777 1.048-.018-.58.33-.92.617-.81-.144.225.225.723.413.87.459-.33.778-.092.998-.05.474.086.917.098 1.31-.268.1-.089.293-.094.449-.11.683-.07 2.142-.434 2.103-.543-.163-.437.018-.809.216-1.16.3-.54.649-.86 1.04-1.218.63-.562 1.657-1.001 1.478-2.415-.023-.19.041-.496.273-.587a.616.616 0 0 1 .754.221c.126-.04.193-.214.2-.425.007-.299-.2-.267-.145-.34 0 0 .37-.078.61-.43.321-.47.64-1.153.874-.827.317-.08.209-.626.2-.626.108-.118.147-.287.298-.237.002-.18-.037-.503-.697-.571-.296-.957-.8-1.275-1.704-1.017-.383-.276-.675-.555-1.023-.715-1.91-.88-2.197-2.501-2.209-2.593-.064-.418-.108-.84.076-1.167.369-.78 2.628-.624 3.105.384.234.495.65.872 1.25.932.528.052 1.028.148 1.482-.357.43-.48 1.091.366 1.039.565.956-.08 1.075-1.287.566-2.23.108-.057.204-.546.17-.628.38-.448.82-.81 1.046-1.27.31-.643.566-1.353.653-2.059.218-1.773-.013-3.523-.536-5.236-.601-1.976-1.69-3.726-2.585-5.565Zm-4.263-27.812c.093-.514 1.12-.807 2.085-.423-.235-.406-.67-.48-.998-.684-.33-.204-.605-.402-.346-.83-.194-.996-2.04-.377-2.2-.326-.454.14-.706.458-.447.462.372.004.545.107.763.234.334.193.588.435.756.454-.108-.01-.453-.04-.643-.014-.492.062-1.13.193-1.039.304 0 0 1.502.069 2.069.823ZM159.416 40a1.25 1.25 0 1 0-.002-2.5 1.25 1.25 0 0 0 .002 2.5Zm-4.99-10a2.088 2.088 0 0 0-2.086 2.087c0 1.148.938 2.08 2.086 2.08a2.08 2.08 0 0 0 2.077-2.08c0-1.154-.931-2.087-2.077-2.087Zm2.078 5c-.916 0-1.666.75-1.666 1.668a1.664 1.664 0 1 0 3.33 0c0-.919-.743-1.668-1.664-1.668Zm45.01 64.167h-3.53l-14.153 26.076-13.959-26.076h-3.395L163.95 130.8l-2.393 2.746-.06.62h8.875v-.62l-2.057-2.746 1.422-20.451 12.736 23.743h1.358l13.61-24.43 1.222 21.275-2.131 2.609v.62h9.086v-.62l-1.92-2.61-2.184-31.77ZM178.54 18.333c-.444 1.346-1.947 2.334-3.735 2.334H142.36c-1.79 0-3.289-.988-3.735-2.334h-5.431v1.13h5.48c.44 1.346 1.949 2.338 3.73 2.338h32.36c1.78 0 3.286-.992 3.728-2.338h3.58l-8.761 9.269c.342.58.524.916.68 1.268l9.983-10.537h-.002v-1.13h-5.432Zm-18.296 17.5c1.15 0 2.086-.933 2.086-2.082a2.089 2.089 0 0 0-2.086-2.084c-1.15 0-2.076.938-2.076 2.084 0 1.149.926 2.082 2.076 2.082Zm-4.574 6.247a1.248 1.248 0 1 0 2.498 0c0-.69-.554-1.247-1.255-1.247-.685 0-1.243.556-1.243 1.247Zm68.291 57.704 1.888 2.674v28.343l-1.917 2.746v.62h20.798v-5.787h-.742l-2.107 2.495h-11.096V117.9h8.442l2.08 2.537h.61v-8.715h-.61l-2.08 2.54h-8.442v-11.804h11.112l2.105 2.496h.741v-5.787h-20.782v.617Zm39.93 0 1.977 2.674v28.484l-1.978 2.605v.62h9.157v-.62l-1.973-2.605v-28.484l1.973-2.674v-.617h-9.157v.617ZM103.01 17.206c-.186-.027-.537.004-.642.014.168-.019.422-.26.756-.454.216-.127.39-.23.76-.234.262-.004.007-.321-.446-.462-.158-.05-2.003-.67-2.2.326.261.428-.015.626-.343.83-.331.203-.763.278-1 .684.964-.384 1.99-.091 2.084.423.569-.754 2.068-.823 2.068-.823.094-.11-.547-.242-1.036-.304Zm5.823-4.02c-.26-.426-.904-.498-1.609-.293-.511.147-.017.557-.204.977-.23.515-.607.605-.1.78.157.055.894.16 1.38-.107.693-.373.733-1.033.533-1.358Zm187.522 103.48v-13.333h2.953c3.892 0 7.037 2.998 7.037 6.697 0 3.693-3.145 6.625-7.037 6.625l-2.953.012Zm19.789 16.661c-1.437-.874-11.178-10.725-11.178-10.725l-3.461-3.794h.506c.776-.003 8.612-.93 8.612-10.026 0-9.893-10.841-9.615-10.841-9.615-.838.019-10.92 0-10.92 0v.62l1.92 2.701v28.523l-1.92 2.627v.622h8.854v-.622l-1.91-2.62v-11.939s10.074 11.053 13.819 14.32c1.008.86 2.622 1.355 4.08 1.522 1.522.178 4.294 0 4.294 0v-.872s-.919-.153-1.855-.722ZM149.553 9.775c-.394.071-.786.145-1.179.225l-.739-3.333 1.918 3.108Zm5.575-.788-.652.11-.671.07-.09-4.167 1.413 3.987Zm3.457-4.82.71 4.166h-1.422l.712-4.166Zm5.703.833-.09 4.167c-.222-.027-.45-.048-.674-.072l-.655-.11L164.288 5Zm6.072 1.667L169.63 10c-.392-.08-.786-.154-1.178-.228l1.908-3.105Zm-24.269-.842.857 4.3c-.367.174-.571.56-.464.94.118.435.58.69 1.035.573a45.47 45.47 0 0 1 22.128 0c.455.117.917-.138 1.035-.573.11-.38-.097-.766-.462-.94l.85-4.298a1.796 1.796 0 0 0 1.14-1.086 1.79 1.79 0 0 0-1.084-2.298 1.812 1.812 0 0 0-2.315 1.072c-.195.536-.11 1.1.17 1.55l-2.367 4.259a58.067 58.067 0 0 0-1.216-.196l.104-4.93c.467-.253.822-.699.926-1.26a1.796 1.796 0 0 0-1.467-2.075 1.807 1.807 0 0 0-2.097 1.458c-.1.56.082 1.1.437 1.496l-1.697 4.911c-.337-.02-.674-.037-1.01-.05l-.864-5.508c.4-.331.662-.824.662-1.383 0-.984-.806-1.787-1.809-1.787a1.8 1.8 0 0 0-1.809 1.787c0 .56.258 1.05.662 1.38l-.864 5.51c-.336.017-.675.03-1.012.051l-1.69-4.914c.355-.395.538-.934.438-1.493a1.815 1.815 0 0 0-2.096-1.458 1.795 1.795 0 0 0-1.468 2.075c.1.561.456 1.007.925 1.26l.106 4.93c-.408.06-.815.127-1.221.196l-2.368-4.256c.28-.45.364-1.017.17-1.553a1.816 1.816 0 0 0-2.32-1.072c-.934.343-1.421 1.371-1.078 2.298.195.539.627.916 1.133 1.084Zm-8.84 93.712h-4.785l-8.486.067-2.44-.437v7.231h.744l3.177-3.604h7.098v28.178l-2.13 2.581v.614h8.857v-.614l-2.128-2.581v-28.178h7.096l3.177 3.604h.747v-7.231l-2.44.437-8.487-.067Zm31.97-86.703a49.036 49.036 0 0 0-21.27 0c-.437.098-.691.474-.579.834.112.36.542.57.955.477a47.26 47.26 0 0 1 20.514 0c.407.092.841-.117.953-.477.117-.36-.146-.738-.573-.834ZM97.295 99.537h-4.786l-8.49.067-2.438-.437v7.231h.748l3.174-3.604h7.1v28.178l-2.13 2.581v.614h8.857v-.614l-2.131-2.581v-28.178h7.099l3.174 3.604h.748v-7.231l-2.439.437-8.486-.067Zm-52.315.247 1.89 2.674v28.343l-1.917 2.746v.62H65.75v-5.787h-.742l-2.105 2.495H51.806V117.9h8.443l2.08 2.537h.609v-8.715h-.608l-2.08 2.54h-8.444v-11.804h11.112l2.105 2.496h.741v-5.787H44.98v.617Zm-20.726 2.676 2.73-2.676v-.617H18.01v.617l1.241 2.017-12.322 11.262v-10.605l1.903-2.674v-.617H0v.617l1.906 2.674v28.484L0 133.547v.62h8.831v-.62l-1.903-2.605v-12.751L23.1 133.408l.272.759h6.597v-.62l-19.066-18.39 13.351-12.697Z"/></svg>