<svg viewBox="0 0 142 79" xmlns="http://www.w3.org/2000/svg">

 <g>
  <title>Layer 1</title>
  <path id="svg_1" d="m121.61308,14.85072c0.484,0.267 1.22,0.162 1.38,0.107c0.505,-0.175 0.13,-0.265 -0.1,-0.78c-0.187,-0.42 0.305,-0.83 -0.204,-0.977c-0.705,-0.205 -1.349,-0.133 -1.611,0.292c-0.197,0.325 -0.16,0.985 0.534,1.358l0.001,0zm-39.57,41.062c-3.177,-3.276 -6.556,-4.923 -13.721,-4.169c1.445,-1.658 11.53,-4.694 15.658,-10.837c1.9,-2.824 2.618,-6.048 1.666,-8.972l0,-0.002l-0.003,0c-1.069,-3.48 -4.4,-5.941 -8.236,-5.785a8.262,8.262 0 0 0 -6.617,3.765s-0.096,0.12 -0.013,0.175c0.064,0.043 0.126,-0.01 0.153,-0.034a5.387,5.387 0 0 1 7.023,0.052l0.06,0.052c2.74,2.72 2.3,6.973 -1.558,11.42c-1.551,1.783 -10.118,9.805 -10.852,10.22l0,-4.902l0.968,-2.03l-8.977,0l0.901,2.03l0,13.545l-0.901,2.027l8.977,0l-0.968,-2.027l0,-6.47c4.478,0.35 6.685,2.28 8.9,5.198c0.004,0.013 0.013,0.022 0.016,0.034c2.934,3.735 7.35,4.734 11.338,2.21c0.154,-0.095 0.312,-0.2 0.456,-0.309a8.855,8.855 0 0 0 2.914,-3.507c-3.132,0.904 -5.4,0.154 -7.183,-1.684l-0.001,0zm-32.455,15.228l5.797,-6.48l1.376,-3.52l-8.324,9.263c0.367,0.406 0.908,0.674 1.15,0.737l0.001,0zm76.23,-19.224c-0.102,0.093 0.731,2.06 -0.65,3.478c-0.653,0.672 -1.741,0.892 -1.997,1.898c-0.13,0.775 -0.792,0.951 -0.87,1.068c-0.644,0.977 -1.815,0.785 -2.426,0.416c-0.087,-0.052 -0.117,0.133 -0.087,0.298a0.922,0.922 0 0 0 0.554,0.672s0.779,0.279 1.114,0.448c0.838,0.423 1.153,1.002 1.265,1.592l0.002,-0.002s0.672,2.188 2.667,3.494c1.49,0.972 2.228,1.912 2.595,2.314c0.126,0.137 0.368,0.19 0.368,0.19s-0.226,0.967 -1.007,0.412c-1.123,-0.794 -0.116,2.68 -1.858,4.651c-0.852,0.96 -1.443,0.782 -1.443,0.782s0.998,-1.477 0.998,-3.26c0,-1.785 -0.65,-2.933 -1.735,-3.89c-1.085,-0.957 -2.682,-2.004 -3.027,-2.096a3.238,3.238 0 0 1 -0.345,-0.091a0.433,0.433 0 0 1 -0.301,-0.284c-0.078,-0.237 0.004,-0.51 0.05,-0.571a0.966,0.966 0 0 1 0.19,-0.179c0.196,-0.162 0.53,-0.432 0.495,-0.978l-0.032,-0.545s-2.945,1.782 -3.013,-1.237c-0.007,-0.22 -0.208,-0.45 -0.52,-0.45l-0.5,-0.019s0.275,0.865 -0.57,0.885c-0.266,0.007 -0.504,-0.153 -0.791,-0.135c-0.229,0.014 -0.598,0.062 -0.687,0.375c-0.274,-0.212 0.013,-0.512 -0.38,-0.98a2.379,2.379 0 0 1 -0.266,-0.319c-0.151,-0.256 -0.2,-0.528 -0.133,-0.768a0.893,0.893 0 0 1 0.178,-0.33c0.018,0.072 0.18,0.154 0.258,0.154c0.192,0 0.525,-0.151 0.977,-0.762c0.31,-0.42 0.543,-0.887 1.05,-0.715c0.578,0.267 0.518,-0.21 0.518,-0.21c0.05,-0.083 -0.004,-3.319 0.263,-4.579c0.203,-0.95 1.187,-2.538 2.264,-2.984l0.023,-0.007l0.02,-0.014c0.976,-0.53 1.28,-1.59 1.236,-2.403c-0.032,-1.734 -4.24,-4.128 -6.376,-4.61c-0.26,-0.06 -0.785,-0.186 -0.746,-0.495c0.426,0.064 0.849,0.076 1.264,0.087c0.265,0.007 0.541,0.014 0.808,0.037c0.046,0.002 0.08,0.002 0.114,0.002c0.478,0 0.548,-0.377 0.555,-0.42c0.062,-0.396 -0.123,-0.623 -2.221,-1.28c-0.436,-0.134 -1.835,-0.864 -2.26,-1.124c-2.034,-1.249 -2.872,-3.776 -2.947,-3.936c0.931,0.583 1.86,0.693 2.436,0.693c0.929,0 1.837,-0.288 2.207,-0.702c0.144,-0.158 0.256,-0.213 0.445,-0.213l0.087,0.002c0.539,0 0.989,-0.546 1.048,-1.271l0.075,-0.951s-0.386,0.35 -0.796,0.523c-0.206,0.09 -0.984,0.394 -2.133,0.394a6.994,6.994 0 0 1 -2.495,-0.453l-0.07,-0.028c-0.322,-0.12 -0.535,-0.2 -1.199,-0.704c-0.105,-0.08 -0.22,-0.16 -0.336,-0.238c-0.447,-0.306 -0.648,-0.512 -0.687,-0.773c-0.228,-1.541 -1.493,0.499 -1.803,0.812c-0.99,1 -1.888,0.61 -2.045,1.244c-0.258,1.04 -0.8,0.476 -1.096,-0.15c-0.176,-0.378 -0.201,-0.822 -0.201,-0.822c-2.009,-2.053 -0.342,-7.57 -0.194,-8.724c0.19,-1.45 -0.203,-2.831 -0.744,-4.052c-0.126,-0.28 -0.366,-0.476 -0.557,-0.613c-1.507,-0.796 -0.005,-1.128 -0.626,-1.898c-0.691,-0.865 -0.048,-1.199 -1.036,-1.286a4.925,4.925 0 0 1 -0.221,-0.503c-0.071,-0.187 -0.6,-1.226 -1.112,-0.88c-1.365,0.915 -1.27,0.018 -1.201,-0.238c0.055,-0.197 -0.527,-1.262 -1.826,-0.789c-0.19,-0.99 -0.998,-0.732 -0.987,-0.764c0.12,-0.295 0.18,-1.072 1.5,-1.44c0.678,-0.815 2.055,-0.572 3.484,-0.076c0.251,0.087 0.45,0.373 0.696,0.464c0.331,0.124 0.829,-0.06 1.132,0.071c0.092,0.039 0.16,0.105 0.204,0.197c0.153,0.094 0.28,0.233 0.397,0.432c0.344,0.583 0.48,1.12 0.424,1.69c-0.061,0.606 -0.057,0.567 0.306,1.002c0.02,0.02 0.05,0.096 0.069,0.146c0.03,0.07 0.06,0.142 0.093,0.21c0.062,0.124 0.099,0.3 0.133,0.485c0.075,0.382 0.55,0.782 0.53,1.208c-0.033,0.651 -0.055,1.326 -0.151,1.962c-0.137,0.894 0.203,1.637 0.5,2.291c0.102,0.222 0.214,0.46 0.33,0.71c0.517,1.092 1.158,2.458 1.293,3.473c0.039,0.295 0.034,0.42 0.027,0.594c-0.002,0.147 -0.009,0.314 0.01,0.59c0.033,0.462 0.353,0.666 0.657,0.666a0.957,0.957 0 0 0 0.44,-0.121c0.443,-0.229 0.847,-0.73 1.203,-0.73c0.416,0 0.71,0.275 0.968,0.41c0.468,0.237 4.013,2.433 6.764,0.359c0.247,0.97 1.434,0.491 1.623,0.42c0.064,0.458 0.235,0.851 0.514,1.174c0.543,0.635 1.45,0.956 2.689,0.956c0.023,0 0.046,-0.003 0.07,-0.003a2.863,2.863 0 0 0 1.628,0.172c0.354,0.592 0.774,1.635 0.553,2.03c-0.142,0.261 -0.306,0.643 -0.283,0.988c0.002,0.055 0.013,0.11 0.027,0.16c-0.014,-0.01 -0.027,-0.022 -0.041,-0.034c-0.959,-0.681 -2.134,-0.132 -2.23,0.105c0.593,0.245 0.694,0.524 0.965,0.764c0.382,0.339 1.315,1.507 1.738,2.85c0.189,0.606 0.577,2.568 0.814,3.549c0.108,0.43 0.567,1.688 0.576,1.94c0.03,0.67 0.064,1.43 0.548,1.776c1.109,0.794 1.716,2.152 2.161,3.373c0.414,1.128 0.553,2.152 0.427,3.126c-0.054,0.419 -0.164,0.686 -0.358,0.865l-0.001,0zm-3.381,21.485c-0.237,0.276 -0.547,0.296 -0.857,0.148a5.831,5.831 0 0 1 -0.986,-0.593c-0.45,-0.343 -0.866,-0.323 -1.34,-0.004c-0.466,0.314 -0.598,0.397 -0.89,0.263c0.192,-0.178 0.248,-0.413 0.48,-0.624c0.247,-0.234 0.466,-0.472 0.198,-0.7c-0.352,-0.295 -0.408,-0.65 -0.369,-1.046c0.071,-0.6 0.112,-1.201 0.208,-1.796c0.122,-0.747 0.38,-1.452 0.978,-2.065c0.352,-0.078 1.94,0.27 2.702,1.464c1.484,2.313 0.569,4.147 -0.124,4.953zm-7.45,-21.185c0.536,-0.61 1.55,-1.473 2.544,-1.909c-1.112,0.976 -2.426,2.456 -2.544,4.321c-0.02,0.287 0.013,0.572 0.022,0.856c0.023,0.512 -0.068,1.025 -0.56,1.36c-0.478,0.326 -1.08,0.026 -1.08,-0.756c-0.031,-1.3 0.722,-2.841 1.618,-3.872zm-9.264,-13.67c-0.108,0.255 -0.218,0.512 -0.305,0.779c-0.19,0.573 -0.888,1.928 -1.143,2.469c-0.5,1.064 -1.014,1.596 -2.118,1.846c0.17,-0.271 0.3,-1.025 0.067,-1.436c-0.078,-0.139 -0.31,-0.093 -0.39,-0.21c-0.193,-0.277 0.085,-0.662 -0.232,-0.957c-0.321,-0.3 -0.636,-0.397 -1.056,-0.376c-0.32,0.019 -0.702,0.026 -0.959,-0.127c-0.48,-0.29 -1.625,-0.562 -2.035,0.113l0.684,-20.34c0.09,0.095 0.174,0.195 0.284,0.278c0.884,0.69 1.143,1.267 1.138,2.727c0.003,1.9 -0.686,4.927 -0.9,5.825c-0.373,1.564 -0.128,3.04 0.721,4.33c0.53,0.798 0.85,1.67 1.249,2.517c0.268,0.564 0.787,0.882 1.381,0.798c0.815,-0.114 1.455,-0.594 2.143,-0.972c0.347,-0.193 0.65,-0.497 1.088,-0.43c0.016,0.073 0.037,0.114 0.032,0.147c-0.124,0.61 -0.103,1.167 0.31,1.712c0.278,0.364 0.227,0.86 0.041,1.306l0,0.001zm-9.852,30.06c0,0.03 -0.032,0.384 -0.032,0.384c-0.17,1.98 -1.79,3.346 -3.818,3.543l-17.73,1.878l-2.963,1.73l-2.96,-1.73l-17.728,-1.878c-2.033,-0.197 -3.65,-1.564 -3.82,-3.543c0,0 -0.033,-0.355 -0.033,-0.384l-1.68,-50.359l1.394,-1.273l5.779,0l0,0.623c0,1.25 1.257,2.853 2.804,2.853l32.49,0c1.547,0 2.805,-1.603 2.805,-2.853l0,-0.623l5.774,0l1.399,1.273l-1.68,50.359l-0.001,0zm-52.558,-52.823a5.542,5.542 0 0 1 -0.223,0.503c-0.986,0.087 -0.345,0.421 -1.037,1.286c-0.618,0.77 0.884,1.102 -0.623,1.898c-0.194,0.137 -0.434,0.334 -0.557,0.613c-0.541,1.22 -0.934,2.602 -0.747,4.052c0.151,1.155 1.815,6.67 -0.191,8.724c0,0 -0.025,0.444 -0.203,0.821c-0.293,0.627 -0.836,1.192 -1.094,0.151c-0.16,-0.633 -1.055,-0.245 -2.045,-1.244c-0.311,-0.313 -1.578,-2.353 -1.806,-0.812c-0.037,0.261 -0.24,0.467 -0.687,0.773a9.68,9.68 0 0 0 -0.336,0.238c-0.664,0.503 -0.874,0.583 -1.196,0.704l-0.069,0.028c-0.792,0.3 -1.632,0.453 -2.497,0.453c-1.149,0 -1.927,-0.304 -2.135,-0.394c-0.409,-0.173 -0.794,-0.523 -0.794,-0.523l0.075,0.951c0.057,0.725 0.507,1.271 1.046,1.271l0.089,-0.002c0.19,0 0.301,0.055 0.443,0.213c0.372,0.414 1.28,0.702 2.207,0.702c0.575,0 1.51,-0.11 2.436,-0.693c-0.073,0.16 -0.913,2.687 -2.947,3.936c-0.423,0.26 -1.822,0.99 -2.258,1.125c-2.1,0.656 -2.283,0.883 -2.224,1.278c0.01,0.044 0.08,0.421 0.555,0.421c0.037,0 0.07,0 0.117,-0.002c0.269,-0.023 0.543,-0.03 0.808,-0.037c0.415,-0.011 0.84,-0.023 1.264,-0.087c0.04,0.309 -0.488,0.435 -0.746,0.494c-2.14,0.483 -6.347,2.877 -6.376,4.61c-0.044,0.815 0.258,1.873 1.232,2.404l0.021,0.014l0.025,0.007c1.075,0.446 2.062,2.035 2.265,2.984c0.267,1.26 0.212,4.496 0.262,4.578c0,0 -0.059,0.478 0.519,0.21c0.504,-0.17 0.74,0.296 1.052,0.716c0.45,0.611 0.783,0.762 0.975,0.762c0.077,0 0.24,-0.082 0.258,-0.153c0.084,0.1 0.146,0.21 0.178,0.33c0.064,0.24 0.018,0.511 -0.13,0.767a2.6,2.6 0 0 1 -0.27,0.318c-0.392,0.47 -0.105,0.769 -0.379,0.981c-0.086,-0.313 -0.459,-0.36 -0.69,-0.375c-0.284,-0.018 -0.524,0.142 -0.789,0.135c-0.845,-0.02 -0.568,-0.885 -0.568,-0.885l-0.5,0.019c-0.313,0 -0.516,0.23 -0.52,0.45c-0.07,3.019 -3.014,1.237 -3.014,1.237l-0.035,0.545c-0.034,0.546 0.3,0.816 0.5,0.978c0.078,0.064 0.146,0.12 0.188,0.179a0.798,0.798 0 0 1 0.05,0.571a0.437,0.437 0 0 1 -0.304,0.284a2.97,2.97 0 0 1 -0.345,0.091c-0.342,0.092 -1.94,1.14 -3.024,2.095c-1.085,0.958 -1.738,2.106 -1.738,3.89c0,1.784 1,3.261 1,3.261s-0.591,0.179 -1.443,-0.782c-1.744,-1.971 -0.737,-5.445 -1.86,-4.651c-0.779,0.555 -1.005,-0.412 -1.005,-0.412s0.24,-0.053 0.365,-0.19c0.37,-0.402 1.108,-1.342 2.598,-2.314c1.996,-1.306 2.667,-3.494 2.667,-3.494l0.002,0.002c0.11,-0.59 0.427,-1.169 1.265,-1.592c0.336,-0.169 1.112,-0.448 1.112,-0.448c0.303,-0.135 0.5,-0.375 0.557,-0.672c0.03,-0.165 0,-0.35 -0.085,-0.298c-0.614,0.369 -1.785,0.56 -2.431,-0.416c-0.075,-0.117 -0.737,-0.293 -0.868,-1.068c-0.255,-1.006 -1.344,-1.226 -2,-1.898c-1.378,-1.418 -0.547,-3.385 -0.648,-3.478c-0.194,-0.179 -0.306,-0.446 -0.36,-0.865c-0.124,-0.974 0.016,-1.998 0.426,-3.126c0.448,-1.221 1.055,-2.58 2.165,-3.373c0.484,-0.345 0.518,-1.107 0.545,-1.777c0.012,-0.251 0.47,-1.51 0.576,-1.94c0.237,-0.98 0.627,-2.942 0.817,-3.548c0.425,-1.343 1.356,-2.511 1.737,-2.85c0.27,-0.24 0.37,-0.519 0.964,-0.764c-0.096,-0.237 -1.272,-0.786 -2.229,-0.105l-0.04,0.034a0.617,0.617 0 0 0 0.025,-0.16c0.025,-0.345 -0.14,-0.727 -0.284,-0.988c-0.219,-0.395 0.201,-1.438 0.555,-2.03c0.45,0.094 1.078,0.064 1.628,-0.172c0.023,0 0.046,0.003 0.07,0.003c1.243,0 2.147,-0.32 2.69,-0.956c0.276,-0.323 0.45,-0.716 0.516,-1.174c0.185,0.071 1.374,0.55 1.62,-0.42c2.752,2.074 6.295,-0.122 6.763,-0.36c0.26,-0.134 0.552,-0.409 0.968,-0.409c0.358,0 0.765,0.501 1.203,0.73c0.157,0.08 0.301,0.121 0.443,0.121c0.303,0 0.62,-0.204 0.657,-0.665c0.019,-0.277 0.012,-0.444 0.007,-0.59c-0.007,-0.174 -0.009,-0.3 0.03,-0.595c0.132,-1.015 0.776,-2.38 1.292,-3.474c0.119,-0.25 0.228,-0.487 0.329,-0.709c0.299,-0.654 0.639,-1.397 0.502,-2.291c-0.096,-0.636 -0.119,-1.31 -0.15,-1.962c-0.024,-0.426 0.454,-0.826 0.527,-1.208c0.038,-0.185 0.07,-0.361 0.134,-0.485c0.035,-0.068 0.064,-0.14 0.092,-0.21c0.02,-0.05 0.052,-0.126 0.068,-0.146c0.365,-0.435 0.368,-0.396 0.308,-1.002c-0.054,-0.57 0.08,-1.107 0.425,-1.69a1.22,1.22 0 0 1 0.395,-0.432a0.4,0.4 0 0 1 0.205,-0.197c0.302,-0.13 0.8,0.053 1.13,-0.07c0.25,-0.092 0.448,-0.378 0.697,-0.465c1.429,-0.496 2.808,-0.739 3.483,0.075c1.325,0.369 1.382,1.146 1.5,1.441c0.014,0.032 -0.796,-0.226 -0.984,0.764c-1.299,-0.473 -1.878,0.592 -1.828,0.789c0.068,0.256 0.166,1.153 -1.196,0.238c-0.516,-0.346 -1.044,0.693 -1.115,0.88zm-1.074,24.75c-0.257,0.154 -0.638,0.147 -0.961,0.128c-0.418,-0.02 -0.732,0.077 -1.053,0.376c-0.32,0.295 -0.042,0.68 -0.23,0.956c-0.083,0.118 -0.314,0.072 -0.395,0.211c-0.234,0.41 -0.1,1.165 0.07,1.436c-1.104,-0.25 -1.62,-0.782 -2.12,-1.846c-0.253,-0.541 -0.953,-1.896 -1.141,-2.47c-0.087,-0.266 -0.197,-0.523 -0.305,-0.779c-0.186,-0.445 -0.239,-0.942 0.041,-1.306c0.41,-0.545 0.434,-1.102 0.31,-1.712c-0.007,-0.033 0.016,-0.074 0.032,-0.146c0.44,-0.068 0.739,0.236 1.087,0.429c0.689,0.378 1.327,0.858 2.143,0.972c0.597,0.084 1.113,-0.234 1.382,-0.798c0.399,-0.847 0.718,-1.72 1.246,-2.517c0.849,-1.29 1.096,-2.766 0.722,-4.33c-0.213,-0.898 -0.9,-3.925 -0.9,-5.825c-0.004,-1.46 0.256,-2.038 1.139,-2.727c0.11,-0.083 0.193,-0.183 0.285,-0.278l0.683,20.34c-0.415,-0.675 -1.555,-0.403 -2.035,-0.113l0,-0.001zm-15.403,11.684c0.899,1.03 1.65,2.572 1.62,3.872c0,0.782 -0.6,1.082 -1.082,0.756c-0.489,-0.335 -0.58,-0.848 -0.56,-1.36c0.012,-0.284 0.044,-0.569 0.025,-0.856c-0.116,-1.865 -1.432,-3.345 -2.544,-4.321c0.995,0.436 2.009,1.298 2.541,1.909zm-4.266,20.736c-0.471,-0.319 -0.889,-0.339 -1.338,0.004c-0.3,0.23 -0.64,0.425 -0.986,0.593c-0.307,0.148 -0.62,0.128 -0.856,-0.148c-0.693,-0.806 -1.608,-2.64 -0.127,-4.953c0.764,-1.194 2.352,-1.542 2.704,-1.464c0.598,0.613 0.856,1.318 0.978,2.065c0.096,0.595 0.135,1.196 0.205,1.796c0.044,0.397 -0.014,0.751 -0.366,1.045c-0.268,0.23 -0.046,0.467 0.2,0.7c0.227,0.212 0.288,0.447 0.479,0.625c-0.293,0.134 -0.425,0.051 -0.893,-0.263zm-3.91,-47.537c-0.39,-0.002 -0.913,0.242 -1.46,1.243c-0.405,0.729 -0.78,-0.014 -0.616,-0.149c0.251,-0.21 -0.637,-0.051 -0.845,0.175c-0.171,0.177 -0.11,0.128 -0.375,-0.007c-0.262,-0.13 -0.504,-0.282 -0.473,-0.659c0.1,-0.025 0.182,-0.051 0.272,-0.07c1.21,-0.244 1.999,-1.066 1.74,-2.243a5.903,5.903 0 0 1 -0.033,-1.317c0.102,-1.034 0.472,-1.49 0.216,-2.34c-0.052,-0.167 0.043,-0.392 -0.064,-0.18c-0.26,0.532 -1.274,1.428 -2.981,1.233c-0.346,0.367 -1.241,0.349 -1.483,0.088c0.014,0.533 -0.82,0.798 -1.092,0.421c-0.253,-0.344 0.015,-1.34 0.034,-1.461c0.047,-0.284 -0.01,-0.526 -0.457,-0.621c0.38,0.672 -0.173,1.021 -0.36,1.484c-0.256,-0.06 -0.661,-0.623 -0.505,-1.06c0.045,-0.12 0.178,-0.245 0.154,-0.336c-0.201,-0.782 0.18,-1.094 0.812,-1.645c0.218,-0.193 1.466,-0.533 1.102,-0.717c-0.344,-0.17 -1.381,-0.128 -0.727,-0.859c0.284,-0.375 0.528,-0.712 0.864,-1.042c0.258,-0.247 0.578,-0.433 0.836,-0.685c0.36,-0.358 0.563,-0.984 1.004,-1.245c0.365,-0.216 0.507,-0.342 0.542,-0.449a0.205,0.205 0 0 0 -0.002,-0.13c-0.024,-0.24 0.092,-0.41 0.405,-0.864c0.509,-0.74 1.302,-0.288 2.053,-0.707c0.08,-0.044 0.142,-0.088 0.204,-0.133c0,0 -0.007,0.221 0.01,0.28c0.113,0.405 0.058,0.69 -0.202,0.982c-0.33,0.37 0.05,0.875 0.379,1.133c0.338,0.186 0.345,-0.842 0.682,-1.09c0.158,-0.115 0.348,-0.216 0.554,-0.3c0.919,-0.376 1.897,-0.027 2.264,0.192c0.734,0.44 0.978,1.808 0.237,2.236c-1.604,0.612 -1.357,2.47 -0.61,3.046c0.38,0.345 0.818,1.12 0.896,1.988c0.002,0.03 0.01,0.056 0.01,0.088l0.007,0.17l0,0.002c0.03,1.022 -0.192,1.625 -1.956,3.163c-0.836,0.73 -0.465,1.869 -1.035,2.385l-0.001,0zm-4.72,-0.943c0.092,-0.14 1.151,0.44 1.506,-0.09c0.224,-0.337 -0.108,1.145 -0.717,1.063c-0.195,-0.028 -0.902,-0.81 -0.79,-0.973l0.001,0zm-0.61,-1.375c-0.345,-0.263 -0.65,-0.798 -0.552,-1.115c0.057,-0.193 0.387,-0.238 0.577,-0.298c-0.133,0.338 -0.205,0.945 -0.025,1.413zm7.646,4.465c0.585,1.823 -1.019,2.745 -1.019,2.745c0.932,-0.845 -0.072,-2.74 -0.42,-3.574c-0.516,-1.234 0.718,-3.228 2.144,-3.926c-0.65,0.856 -1.459,2.41 -0.705,4.755zm5.7,-14.204c1.988,0.113 2.167,-1.383 1.631,-2.218c1.46,0.392 1.47,3.791 -1.183,3.59c-3.078,-0.237 -5.058,0.79 -3.64,3.91c-2.676,-1.101 -2.55,-5.607 3.193,-5.282l-0.001,0zm-1.548,14.676c-0.308,0.56 -1.8,1.2 -2.726,-0.44c-1.488,-2.641 0.24,-6.454 0.24,-6.454c-0.73,3.748 0.52,5.677 2.486,6.894zm0.067,-3.805c-0.04,1.66 0.765,2.745 0.765,2.745c-2.873,-1.898 -2.48,-5.834 -2.48,-5.834s1.756,1.455 1.715,3.09l0,-0.001zm1.606,-0.408c0.263,0.277 3.277,4.037 7.484,-0.18c0,0 -1.243,4.13 -5.023,3.195c-2.747,-0.677 -2.461,-3.015 -2.461,-3.015zm88.224,0s0.286,2.338 -2.461,3.015c-3.777,0.935 -5.023,-3.196 -5.023,-3.196c4.207,4.218 7.221,0.458 7.484,0.181zm1.604,0.408c-0.039,-1.634 1.716,-3.089 1.716,-3.089s0.392,3.936 -2.48,5.834c0,0 0.806,-1.084 0.764,-2.745zm2.553,-3.089s1.73,3.813 0.242,6.453c-0.925,1.64 -2.418,1 -2.726,0.44c1.967,-1.216 3.215,-3.145 2.484,-6.893zm-4.48,-6.41c-2.654,0.201 -2.643,-3.198 -1.183,-3.59c-0.536,0.835 -0.356,2.331 1.631,2.218c5.74,-0.325 5.869,4.18 3.193,5.282c1.415,-3.12 -0.563,-4.147 -3.64,-3.91l-0.001,0zm7.586,12.003c-0.35,0.833 -1.353,2.73 -0.422,3.574c0,0 -1.603,-0.922 -1.016,-2.745c0.754,-2.345 -0.058,-3.9 -0.705,-4.755c1.429,0.698 2.66,2.692 2.143,3.926zm-1.572,-14.396c0.367,-0.22 1.345,-0.568 2.261,-0.191c0.206,0.083 0.4,0.184 0.557,0.3c0.334,0.247 0.343,1.275 0.68,1.089c0.33,-0.258 0.71,-0.763 0.378,-1.133c-0.26,-0.291 -0.312,-0.577 -0.199,-0.982c0.017,-0.059 0.007,-0.28 0.007,-0.28c0.062,0.045 0.128,0.089 0.206,0.133c0.749,0.419 1.544,-0.033 2.054,0.707c0.31,0.454 0.428,0.624 0.407,0.864a0.19,0.19 0 0 0 -0.007,0.13l0.002,0c0.036,0.107 0.178,0.233 0.542,0.45c0.439,0.26 0.642,0.886 1.005,1.244c0.258,0.252 0.577,0.438 0.833,0.685c0.341,0.33 0.585,0.667 0.867,1.042c0.653,0.73 -0.384,0.689 -0.725,0.859c-0.367,0.184 0.881,0.524 1.101,0.717c0.63,0.551 1.01,0.863 0.81,1.645c-0.023,0.09 0.11,0.216 0.152,0.335c0.158,0.438 -0.246,1 -0.502,1.061c-0.187,-0.463 -0.741,-0.812 -0.358,-1.484c-0.45,0.095 -0.507,0.337 -0.46,0.62c0.02,0.122 0.287,1.118 0.034,1.462c-0.272,0.377 -1.108,0.112 -1.092,-0.42c-0.244,0.26 -1.139,0.278 -1.485,-0.09c-1.707,0.196 -2.716,-0.7 -2.981,-1.233c-0.104,-0.211 -0.012,0.014 -0.062,0.182c-0.255,0.85 0.114,1.305 0.214,2.339c0.035,0.356 0.037,0.782 -0.031,1.317c-0.256,1.177 0.533,1.999 1.74,2.243c0.09,0.019 0.173,0.045 0.273,0.07c0.028,0.377 -0.211,0.528 -0.474,0.659c-0.268,0.135 -0.206,0.184 -0.374,0.007c-0.208,-0.226 -1.097,-0.384 -0.848,-0.175c0.164,0.135 -0.21,0.878 -0.61,0.15c-0.55,-1.002 -1.076,-1.246 -1.467,-1.244c-0.568,-0.516 -0.196,-1.654 -1.035,-2.385c-1.761,-1.538 -1.986,-2.141 -1.953,-3.163l0,-0.002c0.002,-0.056 0.005,-0.114 0.005,-0.17c0.002,-0.032 0.009,-0.058 0.011,-0.088c0.079,-0.868 0.517,-1.643 0.893,-1.988c0.748,-0.577 0.997,-2.434 -0.608,-3.046c-0.742,-0.428 -0.495,-1.797 0.239,-2.236zm7.778,10.76c0.183,-0.468 0.11,-1.075 -0.022,-1.413c0.192,0.06 0.517,0.105 0.577,0.298c0.095,0.317 -0.208,0.852 -0.555,1.115zm-0.61,1.375c0.116,0.163 -0.591,0.945 -0.786,0.973c-0.61,0.082 -0.941,-1.4 -0.717,-1.063c0.358,0.53 1.411,-0.05 1.504,0.09l-0.001,0zm4.312,21.98c-0.635,-1.307 -1.351,-2.573 -1.74,-3.98c-0.382,-1.366 -0.746,-2.73 -0.613,-4.174c0.147,-1.565 0.621,-3.002 1.752,-4.13c3.26,-3.672 6.493,-1.314 7.374,0.445c0.424,0.848 0.298,1.248 -0.654,1.305c-0.835,0.048 -2.011,0.452 -2.578,1.062c-0.782,0.852 -1.062,1.844 -1.312,2.981c-0.076,0.352 -0.314,0.978 -0.803,0.59c-0.06,0.141 -0.158,1.025 1.016,1.003c-0.18,0.92 0.94,2.074 0.021,2.334c-0.261,0.076 -0.539,-0.18 -0.649,-0.413c-0.349,2.929 2.872,3.018 3.399,0.964c0.195,-0.759 0.624,-1.099 1.436,-1.037c0.435,0.03 0.605,-0.254 0.605,-0.724c-0.768,0.034 -0.837,-0.69 -0.053,-0.841c0.773,-0.123 1.37,-0.8 1.725,-1.37c0.447,-0.718 0.7,-2.35 0.454,-4.063c-0.243,-1.7 -1.367,-3.477 -1.628,-3.82c-1.181,-1.544 -2.768,-2.417 -4.81,-2.412c-1.213,0 -2.449,0.423 -3.5,1.138c-1.203,0.82 -2.21,1.738 -2.917,3.002c-0.894,1.601 -1.383,3.132 -1.458,4.927c-0.053,1.33 0.33,3.034 0.81,4.298c0.561,1.475 1.226,2.912 1.832,4.377c0.984,2.371 1.715,4.797 1.637,7.406c-0.11,1.711 -1.67,2.856 -2.963,2.959c-0.548,0.04 -1.105,-0.1 -1.383,-0.51a0.908,0.908 0 0 1 -0.135,-0.502c0.009,-0.156 0.108,-0.316 0.188,-0.46c0.998,-1.7 1.098,-3.433 0.225,-5.217c-0.076,-0.156 0.332,-0.665 0.247,-2.296c-0.144,-2.847 -1.761,-5.849 -3.022,-7.167c-0.62,-0.647 -1.046,-1.84 -1.264,-2.664c-0.337,-1.252 -0.31,-2.524 -0.594,-3.792c-0.13,-0.585 -0.26,-1.156 0.151,-1.716c0.11,-0.15 0.264,-0.505 0.28,-0.724c0.055,-0.69 -0.083,-1.823 -0.388,-2.095c0.67,0.315 1.25,0.062 1.4,-0.662c-0.182,0.125 -1.202,-0.236 -0.452,-1.044c0.545,-0.492 0.887,-1.182 0.983,-1.986c0.163,0.925 1.026,0.816 1.438,0.704c0.425,-0.117 0.75,-0.443 0.748,-0.615c-0.33,0.05 -0.628,-0.427 -0.13,-0.6c0.286,-0.101 0.658,-0.375 0.786,-0.54a0.698,0.698 0 0 0 0.092,-0.537c-0.17,-0.546 -0.12,-0.806 0.298,-1.206c0.165,-0.157 0.174,-0.258 0.289,-0.452c0.195,-0.338 -0.078,-0.64 -0.466,-0.674c-0.096,-0.007 -0.92,0.411 -1.103,0.26c-0.172,-0.144 -0.225,-1.016 0.152,-1.555c0.346,-0.5 1.107,-0.683 1.362,-0.578c0.374,0.386 0.218,1.092 0.26,1.647c0.809,-0.124 1.254,-0.617 1.37,-1.133c0.668,0.137 0.985,-0.359 1.411,-0.777c0.172,0.011 0.326,-0.094 0.532,-0.233c0.395,-0.265 0.853,-0.85 0.739,-1.314c-0.062,-0.24 -0.156,-0.342 -0.131,-0.575c0.094,-0.88 -0.062,-1.134 -0.67,-1.604c-0.179,-0.135 -0.192,-0.37 -0.064,-0.617c0.243,-0.46 -0.321,-0.9 -0.621,-1.286c-0.631,-0.804 -1.528,-1.378 -1.97,-2.015c0.259,-0.247 0.502,-1.197 -0.576,-1.485c-0.93,-0.247 -0.076,-2.876 -2.587,-2.14c-0.337,0.098 -1.012,0.283 -1.14,-0.129c-0.103,-0.335 0.34,-0.466 0.426,-0.459c-0.502,-0.658 -1.098,-0.014 -1.146,0.025c-0.055,-0.813 -0.425,-1.133 -1.436,-0.847c-0.16,0.045 -0.367,-0.135 -0.502,-0.26c-0.32,-0.295 -0.716,-0.592 -1.145,-0.636c-0.697,-0.07 -1.284,0.484 -1.858,0.855c-0.972,0.626 -1.701,0.669 -1.995,-0.044c-0.046,0.731 0.429,1.487 1.603,1.03c3.796,-1.487 4.954,1.138 4.665,1.575c-0.055,-0.135 -0.573,-0.355 -1.153,-0.318c-0.81,0.05 -1.067,0.196 -1.262,0.313c0.048,-0.683 -0.977,-1.183 -2.619,-0.617c-0.77,0.265 -1.62,-0.078 -1.832,-0.482c-0.484,-0.91 0.272,-1.517 0.598,-1.5c-0.69,-0.323 -1.45,0.116 -1.731,0.78l0,-0.009c-0.79,0.28 -1.239,0.766 -1.606,1.307c-0.195,-0.002 -1.025,0.012 -1.596,0.245c-0.732,0.301 -2.647,1.245 -1.888,3.77c-0.222,0.71 -1.58,1.358 -2.525,-0.131c-0.53,0.427 -0.534,1.56 0.397,2.59c0.789,0.841 2.397,1.586 5.364,-0.482c0.989,-0.687 3.386,-1.66 4.475,1.451c-0.349,-0.244 -1.615,-1.138 -2.725,-0.452c-5.885,3.648 -8.307,0.541 -8.476,-1.732c-1.124,1.24 -0.28,2.972 0.282,3.863c1.42,2.038 4.55,3.39 6.832,0.919c2.151,-2.33 2.906,-2.506 4.17,-1.86c0,0 -1.06,0.153 -2.021,1.455c-0.867,1.273 -2.816,3.242 -5.264,3.119c-1.782,-0.092 -4.591,-1.64 -4.862,-4.905c-0.396,0.358 -1.548,1.494 -0.697,2.887c0.677,1.113 -0.371,1.543 -0.323,2.116c-0.372,-0.587 -0.814,-1.263 -1.227,-1.974c-0.954,-1.647 -0.177,-4.08 -0.381,-5.005c-0.172,-0.683 -0.553,-0.455 -0.748,-1.133c-0.098,-0.339 -0.11,-0.122 -0.16,-0.467c-0.131,-0.934 -0.16,-1.647 -0.688,-2.661c-0.349,-0.679 -0.91,-0.946 -1.587,-0.99c-0.168,-0.01 -0.342,0.046 -0.503,0.017c-0.172,-0.03 -0.422,-0.08 -0.479,-0.197c-0.2,-0.43 -0.566,-0.498 -0.959,-0.57a5.022,5.022 0 0 1 -0.752,-0.209c-0.823,-0.292 -1.621,-0.516 -2.472,-0.027c-0.303,0.176 -0.626,0.279 -0.844,0.594c-0.117,0.169 -0.601,0.155 -0.803,0.212c-0.665,0.2 -1.034,0.635 -1.353,1.232c-0.459,0.861 -0.42,2.058 0.397,2.49c-0.042,-0.473 0.04,-0.729 0.293,-0.756c0.23,-0.025 0.4,0.162 0.379,0.285c-0.097,0.59 -0.05,0.99 0.098,1.28l-2.922,0s-0.424,-0.019 -0.59,0.116l-1.258,1.014a0.604,0.604 0 0 0 -0.227,0.473l0,0.174c0,0.242 -0.498,0.596 -1.188,0.596l-32.192,0c-0.69,0 -1.188,-0.354 -1.188,-0.596l0,-0.174a0.608,0.608 0 0 0 -0.231,-0.473l-1.257,-1.014c-0.165,-0.135 -0.59,-0.116 -0.59,-0.116l-2.922,0c0.15,-0.29 0.195,-0.69 0.1,-1.28c-0.022,-0.123 0.146,-0.31 0.375,-0.285c0.252,0.027 0.335,0.283 0.294,0.756c0.819,-0.432 0.858,-1.629 0.397,-2.49c-0.32,-0.597 -0.688,-1.033 -1.351,-1.232c-0.202,-0.057 -0.686,-0.043 -0.803,-0.212c-0.218,-0.315 -0.541,-0.418 -0.846,-0.594c-0.849,-0.489 -1.65,-0.265 -2.47,0.027a5.07,5.07 0 0 1 -0.75,0.208c-0.395,0.073 -0.762,0.142 -0.961,0.571c-0.058,0.117 -0.308,0.167 -0.48,0.197c-0.16,0.03 -0.335,-0.028 -0.504,-0.016c-0.677,0.043 -1.234,0.31 -1.587,0.989c-0.526,1.014 -0.558,1.727 -0.688,2.661c-0.05,0.345 -0.06,0.128 -0.159,0.467c-0.197,0.678 -0.578,0.45 -0.75,1.133c-0.201,0.925 0.578,3.358 -0.38,5.005c-0.413,0.71 -0.851,1.387 -1.225,1.974c0.046,-0.573 -1,-1.003 -0.321,-2.116c0.848,-1.393 -0.303,-2.529 -0.7,-2.887c-0.27,3.264 -3.08,4.813 -4.862,4.905c-2.447,0.123 -4.396,-1.846 -5.266,-3.119c-0.958,-1.302 -2.02,-1.455 -2.02,-1.455c1.266,-0.646 2.02,-0.47 4.172,1.86c2.282,2.472 5.412,1.12 6.832,-0.919c0.562,-0.89 1.404,-2.622 0.28,-3.863c-0.17,2.273 -2.59,5.38 -8.475,1.732c-1.11,-0.686 -2.376,0.208 -2.724,0.452c1.089,-3.111 3.486,-2.138 4.472,-1.45c2.97,2.067 4.575,1.322 5.364,0.482c0.934,-1.03 0.93,-2.164 0.4,-2.591c-0.948,1.49 -2.303,0.84 -2.526,0.13c0.757,-2.524 -1.156,-3.468 -1.887,-3.77c-0.571,-0.232 -1.402,-0.246 -1.597,-0.244c-0.366,-0.541 -0.818,-1.028 -1.605,-1.307l0,0.01c-0.284,-0.665 -1.041,-1.104 -1.732,-0.782c0.326,-0.016 1.083,0.592 0.6,1.501c-0.214,0.404 -1.063,0.747 -1.833,0.482c-1.645,-0.566 -2.67,-0.066 -2.617,0.617c-0.198,-0.117 -0.454,-0.263 -1.264,-0.313c-0.583,-0.037 -1.099,0.183 -1.154,0.318c-0.289,-0.437 0.87,-3.062 4.665,-1.574c1.175,0.456 1.65,-0.3 1.603,-1.03c-0.293,0.712 -1.025,0.669 -1.995,0.043c-0.573,-0.37 -1.16,-0.926 -1.855,-0.855c-0.431,0.044 -0.828,0.34 -1.15,0.635c-0.132,0.126 -0.341,0.306 -0.502,0.26c-1.011,-0.285 -1.378,0.035 -1.433,0.848c-0.048,-0.039 -0.644,-0.683 -1.147,-0.025c0.087,-0.007 0.53,0.124 0.425,0.46c-0.127,0.41 -0.8,0.226 -1.14,0.127c-2.51,-0.735 -1.659,1.894 -2.585,2.14c-1.078,0.289 -0.835,1.24 -0.576,1.486c-0.442,0.637 -1.34,1.21 -1.968,2.015c-0.302,0.386 -0.867,0.827 -0.623,1.286c0.126,0.247 0.112,0.482 -0.067,0.617c-0.608,0.47 -0.761,0.724 -0.667,1.604c0.023,0.233 -0.071,0.335 -0.133,0.575c-0.113,0.464 0.346,1.049 0.738,1.314c0.209,0.14 0.36,0.244 0.535,0.233c0.426,0.418 0.745,0.914 1.41,0.777c0.117,0.516 0.562,1.01 1.372,1.133c0.04,-0.555 -0.117,-1.261 0.256,-1.647c0.257,-0.105 1.019,0.077 1.365,0.578c0.376,0.539 0.323,1.411 0.151,1.555c-0.183,0.151 -1.009,-0.267 -1.103,-0.26c-0.387,0.034 -0.66,0.336 -0.465,0.674c0.114,0.194 0.124,0.295 0.289,0.452c0.417,0.4 0.465,0.66 0.296,1.206a0.7,0.7 0 0 0 0.094,0.537c0.13,0.165 0.497,0.439 0.784,0.54c0.502,0.173 0.2,0.65 -0.129,0.6c-0.004,0.172 0.324,0.498 0.748,0.615c0.413,0.112 1.275,0.221 1.438,-0.704c0.096,0.804 0.436,1.494 0.984,1.986c0.748,0.808 -0.273,1.17 -0.454,1.044c0.151,0.724 0.734,0.977 1.399,0.662c-0.303,0.272 -0.44,1.405 -0.385,2.095c0.016,0.22 0.17,0.573 0.277,0.724c0.413,0.56 0.285,1.131 0.154,1.716c-0.285,1.268 -0.257,2.54 -0.594,3.792c-0.22,0.825 -0.645,2.017 -1.266,2.664c-1.26,1.318 -2.878,4.32 -3.023,7.167c-0.083,1.63 0.326,2.14 0.25,2.296c-0.876,1.784 -0.775,3.518 0.222,5.217c0.083,0.144 0.18,0.304 0.189,0.46a0.888,0.888 0 0 1 -0.133,0.502c-0.278,0.41 -0.835,0.55 -1.383,0.51c-1.294,-0.103 -2.854,-1.248 -2.964,-2.959c-0.078,-2.609 0.652,-5.035 1.636,-7.406c0.607,-1.465 1.273,-2.902 1.834,-4.377c0.48,-1.264 0.863,-2.968 0.81,-4.298c-0.076,-1.795 -0.564,-3.326 -1.46,-4.927c-0.705,-1.264 -1.712,-2.182 -2.916,-3.002c-1.05,-0.715 -2.287,-1.138 -3.5,-1.138c-2.041,-0.005 -3.63,0.868 -4.812,2.412c-0.261,0.343 -1.383,2.12 -1.626,3.82c-0.245,1.714 0.01,3.345 0.454,4.062c0.356,0.571 0.952,1.248 1.725,1.37c0.782,0.152 0.716,0.876 -0.055,0.842c0,0.47 0.172,0.753 0.606,0.724c0.816,-0.062 1.243,0.278 1.438,1.037c0.527,2.054 3.747,1.965 3.396,-0.964c-0.11,0.233 -0.385,0.489 -0.646,0.413c-0.922,-0.26 0.201,-1.414 0.018,-2.334c1.176,0.022 1.078,-0.862 1.018,-1.003c-0.49,0.388 -0.727,-0.238 -0.803,-0.59c-0.252,-1.137 -0.53,-2.129 -1.31,-2.981c-0.568,-0.61 -1.744,-1.014 -2.58,-1.062c-0.953,-0.057 -1.077,-0.457 -0.653,-1.305c0.88,-1.759 4.115,-4.117 7.374,-0.445c1.128,1.128 1.605,2.565 1.75,4.13c0.137,1.444 -0.23,2.808 -0.61,4.174c-0.39,1.407 -1.108,2.673 -1.741,3.98c-0.895,1.839 -1.984,3.589 -2.587,5.565c-0.523,1.713 -0.753,3.463 -0.535,5.236c0.085,0.706 0.347,1.416 0.656,2.058c0.223,0.462 0.663,0.823 1.044,1.27c-0.035,0.083 0.062,0.572 0.17,0.629c-0.512,0.943 -0.393,2.15 0.566,2.23c-0.053,-0.2 0.608,-1.045 1.039,-0.565c0.452,0.505 0.952,0.41 1.482,0.357c0.6,-0.06 1.013,-0.437 1.247,-0.932c0.48,-1.008 2.739,-1.163 3.108,-0.384c0.183,0.326 0.14,0.749 0.076,1.167c-0.012,0.092 -0.3,1.714 -2.21,2.593c-0.348,0.16 -0.641,0.439 -1.022,0.715c-0.906,-0.258 -1.408,0.06 -1.702,1.017c-0.663,0.068 -0.702,0.39 -0.7,0.57c0.154,-0.05 0.191,0.12 0.299,0.238c-0.01,0 -0.117,0.546 0.2,0.626c0.233,-0.326 0.552,0.357 0.873,0.827c0.241,0.352 0.61,0.43 0.61,0.43c0.058,0.073 -0.151,0.041 -0.142,0.34c0.002,0.21 0.069,0.384 0.197,0.425a0.613,0.613 0 0 1 0.753,-0.221c0.234,0.091 0.295,0.397 0.273,0.587c-0.177,1.414 0.848,1.853 1.481,2.415c0.39,0.358 0.739,0.678 1.04,1.217c0.196,0.352 0.377,0.724 0.212,1.16c-0.036,0.11 1.42,0.474 2.106,0.544c0.156,0.016 0.348,0.021 0.45,0.11c0.394,0.366 0.832,0.354 1.309,0.267c0.218,-0.04 0.539,-0.278 0.998,0.05c0.188,-0.146 0.555,-0.644 0.412,-0.87c0.287,-0.11 0.636,0.231 0.62,0.811c0.435,-0.221 0.74,-0.511 0.775,-1.048c0.24,0.447 0.793,0.08 0.986,0.792c0.08,-0.093 0.493,-0.644 0.415,-1.005c0.36,0.464 1.023,0.142 1.17,0.734c0.614,-0.672 0.977,-1.042 0.66,-2.175c0.402,-0.124 0.498,-0.053 0.79,0.18c0.635,0.51 1.304,0.813 2.112,0.69c0.201,-0.034 0.488,0.048 0.704,-0.062c0.144,-0.07 0.814,-0.5 1.036,0.156c0.5,-0.032 0.812,-0.464 0.771,-0.916c-0.007,-0.078 0.124,-0.062 0.204,0.03c0.145,0.164 0.255,0.358 0.209,0.774c0.5,-0.25 0.761,-0.692 0.635,-1.248c0.117,0.163 0.243,0.332 0.362,0.894c0.358,-0.3 0.8,-0.921 0.363,-1.412c-0.275,-0.309 -0.594,-0.542 -0.746,-0.944c-0.192,-0.505 -0.759,-0.598 -1.256,-0.564c-0.482,0.037 -0.725,0.121 -0.966,-0.386c-0.048,-0.11 -0.252,-0.272 -0.355,-0.222c-0.817,0.398 -1.936,-0.589 -2.677,0.361c-1.259,-1.334 -1.348,-2.903 -1.046,-4.55c0.092,-0.505 0.365,-0.919 0.757,-1.378c0.018,0.722 0.484,0.61 0.7,0.966c0.16,0.268 0.034,0.71 -0.06,0.836c0.61,0.13 2.53,-1.025 1.044,-3.017c0.42,0.155 1.034,-0.434 0.958,-0.875c0.961,0.477 0.92,1.441 0.317,1.932c0.763,0.135 2.034,-0.507 1.54,-2.472c0.505,0.4 2.356,0.697 2.937,-0.744c-0.244,0.276 -1.381,0.342 -1.418,-0.318c-0.018,-0.359 0.04,-0.532 -0.142,-0.676c1.48,0.503 1.294,-0.47 2.041,-0.656c-0.23,-0.112 -0.892,-0.288 -0.94,-1.398c-0.025,-0.18 0.034,-0.413 0.08,-0.59c0.186,-0.771 -0.154,-1.34 -0.683,-1.832c-0.856,-0.785 -0.743,-0.23 -0.821,-1.624c-0.037,-0.596 -0.273,-1.142 -0.624,-1.652c-0.383,-0.557 -1.01,-0.938 -1.592,-1.258c-0.832,-0.46 -3.72,-1.79 -4.259,-2.623c-0.644,-0.996 -0.445,-1.825 0.163,-2.598c0.782,-0.993 2.08,-1.893 2.844,-2.908c0.408,-0.546 0.92,-0.982 1.53,-1.281c0.582,-0.277 0.119,-0.306 0.695,-0.08c0.759,0.294 1.642,0.336 2.25,0.925c0.463,0.443 1.915,1.97 2.29,2.49c0.354,0.498 0.82,0.715 1.381,0.55c0.122,-0.036 0.237,-0.104 0.351,-0.157c-0.025,-0.046 0.344,0.222 0.516,0.434c0.285,0.345 0.599,0.478 1.032,0.29c0.2,-0.084 0.716,-0.185 0.741,-0.16c0.548,0.65 1.223,0.558 1.87,0.242c0.616,-0.297 1.008,-0.85 1.132,-1.514c0.085,-0.48 0.34,-0.772 0.709,-1.008c0.282,-0.176 0.482,-0.342 0.635,-0.511l0.787,23.057l-0.768,0.77c0.048,3.187 2.557,5.543 5.678,5.808l17.545,1.93l3.218,1.894l0.76,0l3.217,-1.894l17.548,-1.93c3.119,-0.265 5.628,-2.62 5.674,-5.808l-0.766,-0.77l0.786,-23.057c0.152,0.169 0.354,0.335 0.636,0.511c0.369,0.236 0.623,0.528 0.706,1.008c0.124,0.665 0.518,1.217 1.135,1.514c0.65,0.316 1.324,0.407 1.872,-0.242c0.023,-0.025 0.536,0.076 0.738,0.16c0.434,0.188 0.748,0.055 1.03,-0.29c0.172,-0.212 0.544,-0.48 0.518,-0.434c0.115,0.053 0.23,0.121 0.349,0.158c0.564,0.164 1.027,-0.053 1.383,-0.55c0.376,-0.522 1.83,-2.048 2.291,-2.491c0.608,-0.59 1.49,-0.63 2.25,-0.925c0.576,-0.226 0.115,-0.197 0.695,0.08c0.61,0.299 1.122,0.735 1.53,1.281c0.761,1.015 2.062,1.915 2.844,2.908c0.605,0.773 0.805,1.602 0.163,2.598c-0.54,0.834 -3.427,2.163 -4.26,2.623c-0.584,0.32 -1.208,0.701 -1.591,1.258c-0.353,0.51 -0.59,1.056 -0.622,1.652c-0.08,1.394 0.03,0.839 -0.823,1.624c-0.532,0.492 -0.872,1.06 -0.684,1.833c0.044,0.176 0.106,0.409 0.08,0.59c-0.047,1.11 -0.713,1.285 -0.937,1.397c0.743,0.185 0.56,1.159 2.039,0.656c-0.182,0.144 -0.124,0.317 -0.145,0.676c-0.034,0.66 -1.172,0.594 -1.415,0.318c0.58,1.441 2.431,1.144 2.936,0.744c-0.496,1.965 0.777,2.607 1.54,2.472c-0.605,-0.49 -0.646,-1.455 0.317,-1.932c-0.075,0.44 0.537,1.03 0.96,0.875c-1.487,1.992 0.433,3.148 1.043,3.017c-0.094,-0.125 -0.22,-0.568 -0.06,-0.836c0.213,-0.356 0.681,-0.244 0.7,-0.966c0.392,0.46 0.665,0.873 0.756,1.378c0.3,1.647 0.214,3.216 -1.048,4.55c-0.738,-0.95 -1.86,0.037 -2.674,-0.36c-0.103,-0.05 -0.307,0.111 -0.358,0.221c-0.238,0.507 -0.481,0.423 -0.963,0.386c-0.498,-0.034 -1.064,0.06 -1.257,0.564c-0.151,0.402 -0.47,0.635 -0.747,0.944c-0.436,0.491 0.004,1.112 0.364,1.412c0.12,-0.562 0.246,-0.731 0.363,-0.894c-0.127,0.556 0.135,0.999 0.635,1.248c-0.048,-0.416 0.064,-0.61 0.209,-0.775c0.08,-0.091 0.21,-0.107 0.204,-0.03c-0.042,0.453 0.268,0.885 0.77,0.917c0.22,-0.656 0.895,-0.226 1.037,-0.156c0.216,0.11 0.502,0.028 0.704,0.062c0.807,0.123 1.475,-0.18 2.11,-0.69c0.294,-0.233 0.388,-0.304 0.789,-0.18c-0.314,1.133 0.046,1.503 0.663,2.175c0.144,-0.592 0.812,-0.27 1.17,-0.734c-0.08,0.361 0.332,0.912 0.412,1.005c0.193,-0.712 0.748,-0.345 0.989,-0.792c0.032,0.537 0.34,0.827 0.777,1.048c-0.018,-0.58 0.33,-0.92 0.617,-0.81c-0.144,0.225 0.225,0.723 0.413,0.87c0.459,-0.33 0.778,-0.092 0.998,-0.05c0.474,0.086 0.917,0.098 1.31,-0.268c0.1,-0.089 0.293,-0.094 0.449,-0.11c0.683,-0.07 2.142,-0.434 2.103,-0.543c-0.163,-0.437 0.018,-0.809 0.216,-1.16c0.3,-0.54 0.649,-0.86 1.04,-1.218c0.63,-0.562 1.657,-1.001 1.478,-2.415c-0.023,-0.19 0.041,-0.496 0.273,-0.587a0.616,0.616 0 0 1 0.754,0.221c0.126,-0.04 0.193,-0.214 0.2,-0.425c0.007,-0.299 -0.2,-0.267 -0.145,-0.34c0,0 0.37,-0.078 0.61,-0.43c0.321,-0.47 0.64,-1.153 0.874,-0.827c0.317,-0.08 0.209,-0.626 0.2,-0.626c0.108,-0.118 0.147,-0.287 0.298,-0.237c0.002,-0.18 -0.037,-0.503 -0.697,-0.571c-0.296,-0.957 -0.8,-1.275 -1.704,-1.017c-0.383,-0.276 -0.675,-0.555 -1.023,-0.715c-1.91,-0.88 -2.197,-2.501 -2.209,-2.593c-0.064,-0.418 -0.108,-0.84 0.076,-1.167c0.369,-0.78 2.628,-0.624 3.105,0.384c0.234,0.495 0.65,0.872 1.25,0.932c0.528,0.052 1.028,0.148 1.482,-0.357c0.43,-0.48 1.091,0.366 1.039,0.565c0.956,-0.08 1.075,-1.287 0.566,-2.23c0.108,-0.057 0.204,-0.546 0.17,-0.628c0.38,-0.448 0.82,-0.81 1.046,-1.27c0.31,-0.643 0.566,-1.353 0.653,-2.059c0.218,-1.773 -0.013,-3.523 -0.536,-5.236c-0.601,-1.976 -1.69,-3.726 -2.585,-5.565zm-4.263,-27.812c0.093,-0.514 1.12,-0.807 2.085,-0.423c-0.235,-0.406 -0.67,-0.48 -0.998,-0.684c-0.33,-0.204 -0.605,-0.402 -0.346,-0.83c-0.194,-0.996 -2.04,-0.377 -2.2,-0.326c-0.454,0.14 -0.706,0.458 -0.447,0.462c0.372,0.004 0.545,0.107 0.763,0.234c0.334,0.193 0.588,0.435 0.756,0.454c-0.108,-0.01 -0.453,-0.04 -0.643,-0.014c-0.492,0.062 -1.13,0.193 -1.039,0.304c0,0 1.502,0.069 2.069,0.823zm-56.604,21.666a1.25,1.25 0 1 0 -0.002,-2.5a1.25,1.25 0 0 0 0.002,2.5zm-4.99,-10a2.088,2.088 0 0 0 -2.086,2.087c0,1.148 0.938,2.08 2.086,2.08a2.08,2.08 0 0 0 2.077,-2.08c0,-1.154 -0.931,-2.087 -2.077,-2.087zm2.078,5c-0.916,0 -1.666,0.75 -1.666,1.668a1.664,1.664 0 1 0 3.33,0c0,-0.919 -0.743,-1.668 -1.664,-1.668zm22.036,-16.667c-0.444,1.346 -1.947,2.334 -3.735,2.334l-32.445,0c-1.79,0 -3.289,-0.988 -3.735,-2.334l-5.431,0l0,1.13l5.48,0c0.44,1.346 1.949,2.338 3.73,2.338l32.36,0c1.78,0 3.286,-0.992 3.728,-2.338l3.58,0l-8.761,9.269c0.342,0.58 0.524,0.916 0.68,1.268l9.983,-10.537l-0.002,0l0,-1.13l-5.432,0zm-18.296,17.5c1.15,0 2.086,-0.933 2.086,-2.082a2.089,2.089 0 0 0 -2.086,-2.084c-1.15,0 -2.076,0.938 -2.076,2.084c0,1.149 0.926,2.082 2.076,2.082zm-4.574,6.247a1.248,1.248 0 1 0 2.498,0c0,-0.69 -0.554,-1.247 -1.255,-1.247c-0.685,0 -1.243,0.556 -1.243,1.247zm-52.66,-24.874c-0.186,-0.027 -0.537,0.004 -0.642,0.014c0.168,-0.019 0.422,-0.26 0.756,-0.454c0.216,-0.127 0.39,-0.23 0.76,-0.234c0.262,-0.004 0.007,-0.321 -0.446,-0.462c-0.158,-0.05 -2.003,-0.67 -2.2,0.326c0.261,0.428 -0.015,0.626 -0.343,0.83c-0.331,0.203 -0.763,0.278 -1,0.684c0.964,-0.384 1.99,-0.091 2.084,0.423c0.569,-0.754 2.068,-0.823 2.068,-0.823c0.094,-0.11 -0.547,-0.242 -1.036,-0.304l-0.001,0zm5.823,-4.02c-0.26,-0.426 -0.904,-0.498 -1.609,-0.293c-0.511,0.147 -0.017,0.557 -0.204,0.977c-0.23,0.515 -0.607,0.605 -0.1,0.78c0.157,0.055 0.894,0.16 1.38,-0.107c0.693,-0.373 0.733,-1.033 0.533,-1.358l0,0.001zm40.72,-3.411c-0.394,0.071 -0.786,0.145 -1.179,0.225l-0.739,-3.333l1.918,3.108zm5.575,-0.788l-0.652,0.11l-0.671,0.07l-0.09,-4.167l1.413,3.987zm3.457,-4.82l0.71,4.166l-1.422,0l0.712,-4.166zm5.703,0.833l-0.09,4.167c-0.222,-0.027 -0.45,-0.048 -0.674,-0.072l-0.655,-0.11l1.419,-3.985zm6.072,1.667l-0.73,3.333c-0.392,-0.08 -0.786,-0.154 -1.178,-0.228l1.908,-3.105zm-24.269,-0.842l0.857,4.3c-0.367,0.174 -0.571,0.56 -0.464,0.94c0.118,0.435 0.58,0.69 1.035,0.573a45.47,45.47 0 0 1 22.128,0c0.455,0.117 0.917,-0.138 1.035,-0.573c0.11,-0.38 -0.097,-0.766 -0.462,-0.94l0.85,-4.298a1.796,1.796 0 0 0 1.14,-1.086a1.79,1.79 0 0 0 -1.084,-2.298a1.812,1.812 0 0 0 -2.315,1.072c-0.195,0.536 -0.11,1.1 0.17,1.55l-2.367,4.259a58.067,58.067 0 0 0 -1.216,-0.196l0.104,-4.93c0.467,-0.253 0.822,-0.699 0.926,-1.26a1.796,1.796 0 0 0 -1.467,-2.075a1.807,1.807 0 0 0 -2.097,1.458c-0.1,0.56 0.082,1.1 0.437,1.496l-1.697,4.911c-0.337,-0.02 -0.674,-0.037 -1.01,-0.05l-0.864,-5.508c0.4,-0.331 0.662,-0.824 0.662,-1.383c0,-0.984 -0.806,-1.787 -1.809,-1.787a1.8,1.8 0 0 0 -1.809,1.787c0,0.56 0.258,1.05 0.662,1.38l-0.864,5.51c-0.336,0.017 -0.675,0.03 -1.012,0.051l-1.69,-4.914c0.355,-0.395 0.538,-0.934 0.438,-1.493a1.815,1.815 0 0 0 -2.096,-1.458a1.795,1.795 0 0 0 -1.468,2.075c0.1,0.561 0.456,1.007 0.925,1.26l0.106,4.93c-0.408,0.06 -0.815,0.127 -1.221,0.196l-2.368,-4.256c0.28,-0.45 0.364,-1.017 0.17,-1.553a1.816,1.816 0 0 0 -2.32,-1.072c-0.934,0.343 -1.421,1.371 -1.078,2.298c0.195,0.539 0.627,0.916 1.133,1.084zm23.13,7.009a49.036,49.036 0 0 0 -21.27,0c-0.437,0.098 -0.691,0.474 -0.579,0.834c0.112,0.36 0.542,0.57 0.955,0.477a47.26,47.26 0 0 1 20.514,0c0.407,0.092 0.841,-0.117 0.953,-0.477c0.117,-0.36 -0.146,-0.738 -0.573,-0.834z" fill="currentColor"/>
 </g>
</svg>